<?xml version="1.0" standalone="no"?><!DOCTYPE svg PUBLIC "-//W3C//DTD SVG 1.1//EN" "http://www.w3.org/Graphics/SVG/1.1/DTD/svg11.dtd"><svg width="100%" height="100%" viewBox="0 0 72 24" version="1.1" xmlns="http://www.w3.org/2000/svg" xmlns:xlink="http://www.w3.org/1999/xlink" xml:space="preserve" style="fill-rule:evenodd;clip-rule:evenodd;stroke-linejoin:round;stroke-miterlimit:1.41421;"><g id="Layer 1"><g><path d="M8.615,7.593c0.114,-0.389 0.251,-0.759 0.693,-0.888c0.198,-0.058 0.393,-0.07 0.555,0.09c-0.188,0.106 -0.372,0.209 -0.555,0.313c0.006,0.011 0.011,0.021 0.017,0.032c0.193,-0.08 0.387,-0.161 0.584,-0.243c0.069,0.536 -0.572,0.875 -1.294,0.696M7.874,6.867c0.14,-0.413 0.521,-0.575 0.781,-0.328c-0.094,0.034 -0.187,0.068 -0.28,0.102c0.002,0.007 0.004,0.013 0.006,0.02c0.091,-0.013 0.183,-0.026 0.276,-0.039c-0.024,0.314 -0.374,0.419 -0.783,0.245M9.059,5.087c0.15,0.094 0.271,0.207 0.259,0.407c-0.146,-0.059 -0.281,-0.114 -0.416,-0.17c-0.006,0.011 -0.011,0.022 -0.017,0.033c0.125,0.07 0.25,0.141 0.382,0.215c-0.315,0.27 -0.822,0.114 -1.065,-0.441c0.282,-0.124 0.559,-0.232 0.857,-0.044M9.045,4.51c0.023,0.062 0.034,0.186 0.011,0.197c-0.084,0.038 -0.148,0.145 -0.277,0.071c-0.212,-0.12 -0.268,-0.304 -0.282,-0.534c0.271,-0.026 0.474,0.072 0.548,0.266M9.205,4.209c0.339,-0.055 0.759,0.123 0.925,0.402c0.117,0.197 0.195,0.404 0.054,0.632c-0.126,-0.155 -0.243,-0.301 -0.361,-0.446c-0.011,0.007 -0.021,0.015 -0.032,0.023c0.097,0.155 0.194,0.31 0.293,0.467c-0.469,0.189 -0.904,-0.359 -0.879,-1.078M9.71,3.29c0.276,0.093 0.548,0.185 0.635,0.504c0.039,0.143 0.075,0.299 -0.07,0.428c-0.058,-0.113 -0.111,-0.216 -0.164,-0.319c-0.011,0.005 -0.022,0.009 -0.033,0.013c0.037,0.107 0.074,0.213 0.111,0.321c-0.383,0.065 -0.599,-0.359 -0.479,-0.947M10.847,3.047c0.185,0.314 0.087,0.631 -0.235,0.687c0.031,-0.072 0.054,-0.125 0.077,-0.178c-0.006,-0.004 -0.013,-0.008 -0.019,-0.013c-0.036,0.051 -0.071,0.102 -0.108,0.155c-0.183,-0.229 -0.06,-0.502 0.285,-0.651M11.373,4.702c-0.085,0.288 -0.238,0.529 -0.598,0.629c0.03,-0.295 0.057,-0.561 0.084,-0.828c-0.01,-0.002 -0.021,-0.005 -0.031,-0.008c-0.067,0.264 -0.135,0.527 -0.204,0.798c-0.565,-0.347 -0.318,-1.189 0.519,-1.716c0.194,0.354 0.351,0.713 0.23,1.125M9.504,6.376c-0.133,0.174 -0.315,0.162 -0.483,0.143c-0.305,-0.034 -0.46,-0.262 -0.616,-0.509c0.285,-0.151 0.558,-0.258 0.857,-0.1c0.148,0.078 0.284,0.178 0.275,0.381c-0.149,-0.048 -0.291,-0.093 -0.432,-0.139c-0.004,0.011 -0.008,0.022 -0.012,0.033c0.131,0.061 0.262,0.122 0.411,0.191M10.627,6.352c-0.176,-0.105 -0.334,-0.199 -0.492,-0.294c-0.007,0.011 -0.015,0.023 -0.023,0.034c0.147,0.113 0.293,0.226 0.439,0.337c-0.16,0.127 -0.326,0.127 -0.563,-0.001c-0.315,-0.171 -0.511,-0.557 -0.47,-0.927c0.737,-0.116 1.177,0.368 1.109,0.851M11.681,3.075c0.37,0.19 0.678,0.417 0.674,0.872c-0.001,0.149 -0.022,0.309 -0.191,0.389c-0.062,-0.192 -0.121,-0.377 -0.181,-0.563c-0.011,0.004 -0.023,0.007 -0.034,0.01c0.038,0.188 0.075,0.376 0.114,0.567c-0.489,0.002 -0.683,-0.663 -0.382,-1.275M12.676,3.116c0.252,0.321 0.256,0.582 -0.001,0.731c-0.007,-0.091 -0.017,-0.174 -0.023,-0.258c-0.008,-0.001 0.003,-0.001 -0.027,-0.001l0,0.27c-0.264,-0.133 -0.25,-0.461 0.051,-0.742M13.121,5.276c-0.126,0.25 -0.3,0.379 -0.536,0.394c0.069,-0.286 0.137,-0.574 0.206,-0.862c-0.011,-0.003 -0.022,-0.006 -0.033,-0.009c-0.1,0.275 -0.201,0.551 -0.305,0.835c-0.522,-0.425 -0.305,-1.208 0.461,-1.728c0.264,0.44 0.46,0.871 0.207,1.37M13.285,3.156c0.363,0.314 0.266,0.782 -0.037,0.881c0.011,-0.118 0.022,-0.231 0.034,-0.344c-0.009,-0.002 -0.017,-0.003 -0.025,-0.005c-0.026,0.103 -0.052,0.206 -0.082,0.329c-0.296,-0.23 -0.207,-0.625 0.11,-0.861M13.865,3.763c0.128,0.268 0.23,0.535 0.059,0.823c-0.092,0.155 -0.188,0.211 -0.34,0.204c0.043,-0.129 0.087,-0.259 0.13,-0.389c-0.009,-0.003 -0.018,-0.006 -0.027,-0.01c-0.06,0.124 -0.12,0.248 -0.182,0.374c-0.314,-0.278 -0.128,-0.783 0.36,-1.002M14.707,3.558c-0.026,0.366 -0.263,0.581 -0.53,0.479c0.041,-0.053 0.079,-0.104 0.118,-0.154c-0.005,-0.008 -0.01,-0.015 -0.015,-0.022c-0.051,0.043 -0.101,0.087 -0.155,0.135c-0.054,-0.313 0.17,-0.481 0.582,-0.438M14.562,4.713c-0.096,0.077 -0.201,0.168 -0.353,0.079c0.069,-0.076 0.129,-0.143 0.188,-0.209c-0.009,-0.009 -0.018,-0.018 -0.027,-0.026c-0.062,0.057 -0.125,0.115 -0.188,0.173c-0.181,-0.269 0.112,-0.603 0.548,-0.638c0.078,0.219 0.015,0.474 -0.168,0.621M14.706,5.458c0.052,-0.121 0.101,-0.236 0.151,-0.352c-0.012,-0.006 -0.024,-0.012 -0.036,-0.018c-0.06,0.103 -0.119,0.206 -0.185,0.322c-0.281,-0.321 0.033,-0.788 0.605,-0.913c0.189,0.444 -0.105,0.994 -0.535,0.961M15.692,5.6c-0.076,0.317 -0.169,0.606 -0.488,0.735c-0.171,0.07 -0.352,0.098 -0.522,-0.036c0.125,-0.073 0.241,-0.14 0.357,-0.207c-0.006,-0.012 -0.012,-0.024 -0.018,-0.037c-0.116,0.049 -0.232,0.097 -0.361,0.15c-0.058,-0.206 0.061,-0.337 0.182,-0.451c0.241,-0.228 0.533,-0.223 0.85,-0.154M16.194,6.401c-0.159,0.264 -0.544,0.372 -0.73,0.079l0.25,0c0.001,0 0.002,-0.013 0.003,-0.022c-0.077,-0.006 -0.154,-0.012 -0.232,-0.019c0.093,-0.276 0.418,-0.292 0.709,-0.038M14.364,7.107c0.249,-0.033 0.493,-0.068 0.736,-0.101c0,-0.008 0,-0.027 0,-0.027l-0.774,0c0.059,-0.088 0.097,-0.169 0.164,-0.222c0.231,-0.181 0.509,-0.236 0.775,-0.136c0.232,0.088 0.436,0.25 0.661,0.384c-0.54,0.596 -1.319,0.638 -1.562,0.102M14.169,6.094c-0.022,-0.156 -0.048,-0.311 -0.106,-0.464l0,0.694c-0.528,-0.136 -0.592,-0.894 -0.128,-1.479c0.329,0.258 0.613,0.543 0.554,1.008c-0.025,0.199 -0.083,0.395 -0.317,0.48c0,-0.097 0.007,-0.169 -0.003,-0.239M11.619,8.836c0.02,-0.33 -0.136,-0.513 -0.456,-0.584c-0.249,-0.055 -0.502,-0.097 -0.751,-0.152c-0.242,-0.054 -0.451,-0.16 -0.55,-0.409c-0.017,-0.044 -0.022,-0.093 -0.033,-0.14c0.016,-0.018 0.033,-0.035 0.05,-0.053c0.365,0.579 0.895,0.313 1.375,0.314c-0.116,-0.305 -0.68,-0.857 -1.163,-0.908c0.132,-0.231 0.556,-0.153 1.127,0.207c-0.002,-0.249 -0.061,-0.472 -0.222,-0.675c-0.209,-0.261 -0.303,-0.566 -0.259,-0.916c0.166,0.214 0.322,0.416 0.511,0.66c0.088,-0.303 0.178,-0.547 0.227,-0.798c0.048,-0.246 0.054,-0.499 0.083,-0.788c0.17,0.348 0.18,0.695 0.155,1.044c-0.025,0.354 -0.066,0.707 -0.102,1.076c0.27,-0.313 0.523,-0.606 0.776,-0.899c0.023,0.012 0.046,0.023 0.069,0.035c-0.043,0.106 -0.076,0.218 -0.131,0.319c-0.094,0.172 -0.202,0.337 -0.303,0.506c-0.21,0.349 -0.252,0.712 -0.097,1.095c0.048,0.119 0.085,0.244 0.124,0.359c0.252,-0.265 0.496,-0.525 0.744,-0.781c0.285,-0.296 0.393,-0.657 0.413,-1.058c0.017,-0.35 0.042,-0.701 0.075,-1.05c0.007,-0.082 0.062,-0.159 0.095,-0.238c0.019,0.006 0.037,0.011 0.056,0.016c0.006,0.031 0.016,0.062 0.019,0.093c0.036,0.397 0.072,0.794 0.105,1.191c0.032,0.376 -0.024,0.736 -0.19,1.077c-0.028,0.057 -0.056,0.113 -0.101,0.202c0.514,-0.209 0.622,-0.692 0.867,-1.075c0.009,0.405 -0.123,0.766 -0.347,1.147l0.73,0c-0.128,0.264 -0.351,0.312 -0.574,0.342c-0.076,0.01 -0.158,0.014 -0.233,0c-0.321,-0.06 -0.623,0.056 -0.9,0.166c-0.235,0.092 -0.382,0.354 -0.389,0.622c-0.007,0.253 0.473,1.736 0.517,1.987l4.925,-4.925l-5.845,-5.845l-5.859,5.859l5.056,5.057c0.053,-0.471 0.251,-1.197 0.286,-1.361c0.052,-0.237 0.106,-0.478 0.12,-0.719" style="fill:#151515;stroke-width:0.24px;stroke:#a0a0a0;"/><path d="M10.762,20.097c-2.479,-1.589 -3.766,-1.643 -4.424,-1.826c0,0 2.152,0.79 3.719,1.969c1.847,1.39 3.55,1.331 4.673,1.016l0.928,-0.93c-1.025,0.67 -2.707,1.173 -4.896,-0.229" style="fill:#151515;stroke-width:0.24px;stroke:#a0a0a0;"/><path d="M11.759,16.741c0,0 0.605,-0.577 0.763,-0.632c0.159,-0.056 -0.316,-0.303 -0.374,-0.29c-0.057,0.014 0.585,-0.439 1.383,-0.042c0.798,0.396 1.739,1.165 1.739,1.165c0,0 -0.634,0.52 -1.046,0.79c0.492,0.297 0.962,0.681 0.962,0.681c0,0 -0.596,0.49 -0.875,0.645c-0.051,0.029 -0.207,0.064 -0.231,0.065c-0.156,0.006 -0.281,0.024 -0.498,-0.029c-0.216,-0.052 -0.42,0.142 -0.42,0.142l0.124,-0.275c0,0 -0.357,-0.203 -0.396,-0.272c-0.033,-0.058 0.711,0.267 1.155,0.241c0.078,-0.004 0.286,-0.098 0.327,-0.124c0.29,-0.179 0.48,-0.362 0.48,-0.362c0,0 -0.584,-0.522 -1.083,-0.507c-0.499,0.016 -1.162,0.25 -1.718,0.98l-0.204,-1.283l0.778,0.632c0,0 0.272,-0.26 0.445,-0.391c-0.296,-0.07 -0.575,0.195 -0.575,0.195l0.171,-0.377c0,0 -0.489,-0.278 -0.543,-0.372c-0.032,-0.058 0.482,0.155 1,0.267c-0.076,-0.112 -0.182,-0.227 -0.211,-0.232c-0.006,0.001 -0.007,0.001 -0.003,0c0.001,0 0.002,0 0.003,0c0.054,-0.005 0.484,-0.052 1.005,0.206c0.01,0.005 0.02,0.011 0.03,0.016c0.093,-0.038 0.179,-0.079 0.207,-0.097c0.397,-0.246 0.658,-0.496 0.658,-0.496c0,0 -0.8,-0.716 -1.484,-0.694c-0.685,0.021 -1.593,0.341 -2.355,1.341l-0.279,-1.757l1.065,0.866ZM11.055,19.28c2.482,1.562 4.063,1.252 4.98,0.673l1.811,-1.811l-5.844,-5.845l-5.664,5.664c0.8,-0.043 2.456,-0.103 4.717,1.319" style="fill:#151515;stroke-width:0.24px;stroke:#a0a0a0;"/><path d="M9.53,21.176c-0.754,-0.577 -0.804,-0.583 -1.428,-1.06l3.885,3.885l2.132,-2.132c-1.235,0.488 -2.873,0.62 -4.589,-0.693" style="fill:#151515;stroke-width:0.24px;stroke:#a0a0a0;"/><path d="M4.999,13.402l0,-2.786l0.411,0l0,2.493l1.232,0l0,0.293l-1.643,0ZM5.86,6.155l-5.86,5.86l5.845,5.844l5.859,-5.859l-5.844,-5.845Z" style="fill:#151515;fill-rule:nonzero;stroke-width:0.24px;stroke:#a0a0a0;"/><path d="M18.616,13.461l-0.488,-2.135l-0.511,2.135l-0.39,0l-0.713,-2.786l0.378,0l0.567,2.187l0.523,-2.187l0.378,0l0.494,2.157l0.61,-2.157l0.32,0l-0.777,2.786l-0.391,0ZM18.156,6.143l-5.859,5.86l5.845,5.844l5.859,-5.859l-5.845,-5.845Z" style="fill:#151515;fill-rule:nonzero;stroke-width:0.24px;stroke:#a0a0a0;"/></g><path d="M0.011,-0.142l-0.05,11.684l11.466,-11.66l-11.416,-0.024Z" style="fill:#fff;stroke-width:0.24px;stroke-linecap:round;stroke:#fff;"/><path d="M-0.006,24.21l-0.049,-11.684l11.465,11.661l-11.416,0.023Z" style="fill:#fff;stroke-width:0.24px;stroke-linecap:round;stroke:#fff;"/><path d="M24.227,24.069l-0.002,-11.685l-11.414,11.712l11.416,-0.027Z" style="fill:#fff;stroke-width:0.24px;stroke-linecap:round;stroke:#fff;"/><path d="M24.109,-0.168l0.029,11.684l-11.444,-11.682l11.415,-0.002Z" style="fill:#fff;stroke-width:0.24px;stroke-linecap:round;stroke:#fff;"/><g transform="matrix(0.152717,0,0,0.18171,8.81127,5.22785)"><text x="116.304px" y="44.804px" style="font-family:'LucidaGrande';font-size:25.315px;fill:#ff9d00;stroke-width:1.43px;stroke:#222;">Living</text><text x="195.364px" y="44.804px" style="font-family:'LucidaGrande';font-size:25.315px;fill:#ff9d00;stroke-width:1.43px;stroke:#222;">Waters</text><text x="284.165px" y="44.804px" style="font-family:'LucidaGrande';font-size:25.315px;fill:#ff9d00;stroke-width:1.43px;stroke:#222;">Camp</text><text x="361.556px" y="44.804px" style="font-family:'LucidaGrande';font-size:25.315px;fill:#ff9d00;stroke-width:1.43px;stroke:#222;">Bay</text></g></g></svg>