<?xml version="1.0" encoding="utf-8"?>
<!-- Generator: Adobe Illustrator 23.0.1, SVG Export Plug-In . SVG Version: 6.00 Build 0)  -->
<svg version="1.1" id="Layer_1" xmlns="http://www.w3.org/2000/svg" xmlns:xlink="http://www.w3.org/1999/xlink" x="0px" y="0px"
	 viewBox="0 0 490.16 486" style="enable-background:new 0 0 490.16 486;" xml:space="preserve">
<style type="text/css">
	.st0{fill:#1577AD;}
</style>
<g>
	<path class="st0" d="M77.94,145.44c-4.12-4.49-7.41-8.08-11.46-12.49c3.35-3.17,7.19-6.63,10.84-10.28
		c13.59-13.59,13.75-31.08,0.48-44.8c-18.66-19.28-18.56-46.88,0.21-65.92C81.79,8.11,85.43,4.15,89.38,0
		c3.89,4.23,7.26,7.9,11.38,12.38c-3.63,3.36-7.84,6.98-11.74,10.91C76.49,35.93,76.5,53.96,88.92,66.7
		c19.38,19.88,19.26,47.3-0.21,66.97C85.04,137.37,81.67,141.35,77.94,145.44z"/>
	<path class="st0" d="M396.19,63.26c4.01,3.88,7.52,7.27,11.83,11.44c-4.26,3.94-8.46,7.56-12.35,11.49
		c-12.55,12.66-12.55,30.61-0.12,43.41c19.5,20.08,19.25,47.4-0.52,67.34c-3.55,3.58-6.78,7.47-10.35,11.42
		c-4.23-4.45-7.58-7.97-11.89-12.5c3.46-3.16,7.29-6.4,10.83-9.93c14.07-14,14.22-31.32,0.49-45.49
		c-18.19-18.78-18.11-46.56,0.2-65.21C388.19,71.26,392.12,67.35,396.19,63.26z"/>
	<path class="st0" d="M310.34,11.72c3.87-4.08,7.23-7.62,10.76-11.35c11.07,10.56,22.62,20.32,25.17,36.55
		c2.4,15.3-1.55,28.57-12.04,39.81c-14.78,15.83-14.61,31.89,0.75,47.34c3.1,3.12,6.22,6.23,9.51,9.53
		c-3.84,3.69-7.44,7.14-11.24,10.78c-10.47-10.02-21.87-19.54-24.67-35.26c-2.77-15.6,0.58-29.82,12.04-40.62
		c12.22-11.52,16.07-32.62-0.88-47.52C316.44,18.08,313.46,14.81,310.34,11.72z"/>
	<path class="st0" d="M2.98,74.91c1.6-1.78,2.33-2.64,3.11-3.47c2.58-2.73,5.17-5.45,7.71-8.13c19.07,15.5,31.97,31.6,24.4,57.57
		c-2.06,7.07-6.63,13.96-11.64,19.5c-13.02,14.43-13.23,31.57,0.58,45.36c3.57,3.57,7.28,7,11.12,10.68
		c-4.17,3.89-7.74,7.22-11.55,10.76c-13.38-11.69-25.9-24.16-25.68-44.2c0.14-12.55,4.6-23.29,13.28-32.3
		c14.03-14.55,13.92-31.53-0.42-45.89C10.46,81.34,6.67,78.23,2.98,74.91z"/>
	<path class="st0" d="M392.42,376.1c-4.79,0-9.64,0-14.97,0c0-8.83,0.16-17.31-0.03-25.77c-1.05-47.95-18.15-89.35-51.47-123.81
		c-23.64-24.45-52.15-40.78-85.16-49.21c-1.75-0.45-4.51-1.88-4.6-3.02c-0.47-5.95-0.22-11.96-0.22-18.21h-78.88
		c0,7.14,0,13.49,0,19.67c-0.33,0.29-0.44,0.46-0.57,0.5c-1.26,0.36-2.52,0.7-3.78,1.04c-59.95,16.39-101.65,53.44-125,110.96
		c-9.95,24.51-12.74,50.29-11.95,76.56c0.11,3.7,0.02,7.41,0.02,11.64c-5.62,0-10.6,0-15.49,0c-3.2,34.1,18.49,71.36,62.68,78.37
		c0,10.29,0,20.68,0,31.18c89.34,0,178.15,0,267.49,0c0-10.69,0-21.07,0-31.36C379.16,446.84,397.11,403.79,392.42,376.1z
		 M173.38,156.32c15.76,0,31.07,0,46.61,0c0,5.57,0,10.9,0,16.14c-15.45,0-30.86,0-46.61,0
		C173.38,167.55,173.38,162.1,173.38,156.32z M104.99,215.89c57.28-37.96,118.15-39.49,176.96-4.01
		c60.93,36.76,83.99,94.11,79.45,164.34c-14.77,0-29.16,0-43.56,0c-1.3,0-2.6,0-4.42,0c-1.6-9.3-3.2-18.43-4.75-27.57
		c-2.38-14.03-4.62-28.08-7.12-42.09c-2.97-16.6-15.19-28.61-31.99-31.78c-0.95-0.18-1.88-0.47-2.35-0.59
		c-0.23-4.92,0.2-9.72-0.81-14.18c-2.28-10.06-11.44-17.28-21.75-17.4c-16.37-0.19-32.75-0.24-49.12,0.11
		c-4.08,0.09-8.13,1.91-12.58,3.02c-9.06-14.3-22.84-19.94-39.89-18.98c-5.52,0.31-11.07,0.05-17.24,0.05
		c0.87,16.12-3.37,32.48,7.8,46.58c-5.04,0.74-9.52,0.86-13.66,2.1c-16.13,4.81-25.53,15.82-28.42,32.34
		c-1.16,6.6-1.88,13.29-3.16,19.86c-0.3,1.54-1.8,3.54-3.21,4.05c-20.78,7.52-32.85,22.34-37.44,44.1c-5.12,0-10.4,0-15.83,0
		C27.37,309.21,48.32,253.44,104.99,215.89z M227.95,360.79c0.24,5.03,0.47,9.86,0.72,15.06c-5,0-10.28,0-15.91,0
		c-0.11-0.88-0.36-1.96-0.36-3.03c-0.03-14.08-0.04-28.17-0.01-42.25c0.01-5.8,3-9.33,7.76-9.35c4.8-0.03,7.86,3.48,7.93,9.21
		c0.05,4.56,0.01,9.13,0.01,14.03c5.25,0,10.21,0,15.49,0c0-6.43,0.65-12.84-0.14-19.07c-1.53-12.06-12.62-20.62-24.72-19.9
		c-11.99,0.72-21.69,10.71-22.06,22.88c-0.16,5.23-0.03,10.47-0.03,16.86c-1.76-1.44-2.89-2.4-4.05-3.31
		c-18.17-14.19-37.79-16.95-58.84-7.21c-2.81,1.3-4.94,1.09-7.79,0.03c-6.83-2.56-13.9-4.47-21.86-6.95
		c1.48-7.38,2.31-15.89,4.99-23.77c3.14-9.19,10.83-14.12,20.48-14.17c44.7-0.22,89.41-0.17,134.12-0.05
		c10.04,0.03,18.48,6.82,20.99,16.06c-18.36,6.35-25.09,15.86-25.14,35.53c-0.02,8.52,0.02,17.03-0.03,25.55
		c-0.03,5.77-3.07,9.29-7.86,9.26c-4.79-0.04-7.75-3.53-7.84-9.31c-0.03-1.94,0-3.87,0-6.1
		C238.51,360.79,233.54,360.79,227.95,360.79z M195.48,376.02c-13.02,0-25.73,0-37.19,0c-4.61-9.99-8.92-19.33-13.25-28.73
		C161.28,338.7,190.76,350.2,195.48,376.02z M140.34,376.03c-25.35,0-50.67,0-76.01,0c1.52-16.34,18.78-30.9,36.91-31.23
		C120.48,344.45,138.08,358.43,140.34,376.03z M141.97,242.91c22.01-3.28,34.13,12.63,30.57,30.63
		C154.1,277.05,138.64,264.47,141.97,242.91z M188.8,266.36c-0.13-4.78,3.41-8.03,9.04-8.05c14.87-0.05,29.73-0.05,44.6,0
		c5.76,0.02,9.25,3.1,9.22,7.88c-0.02,4.78-3.52,7.77-9.28,7.81c-7.35,0.05-14.7,0.01-22.05,0.01c-7.51,0-15.03,0.06-22.54-0.02
		C192.33,273.94,188.92,270.95,188.8,266.36z M275.29,337.25c0.06-8.01,4.68-13.62,12.84-15.45c3.05,17.97,6.1,35.91,9.2,54.18
		c-7.95,0-15.4,0-22.06,0C275.27,362.95,275.2,350.1,275.29,337.25z M314.36,470.31c-78.54,0-156.86,0-235.42,0
		c0-5.06,0-9.9,0-15.11c78.34,0,156.66,0,235.42,0C314.36,460.34,314.36,465.19,314.36,470.31z M361.29,422.96
		c-10.57,10.5-23.4,16.1-38.36,16.11c-84.03,0.07-168.05,0.1-252.08,0.01c-25.64-0.03-47.18-17.1-53.4-41.85
		c-0.39-1.56-0.6-3.17-0.95-5.05c120.23,0,240.06,0,360.25,0C375.04,404.42,369.75,414.55,361.29,422.96z"/>
	<path class="st0" d="M165.63,155.09h0.31c0,0,0,0,0,0C165.83,155.09,165.73,155.09,165.63,155.09z"/>
	<path class="st0" d="M157.33,156.94c26.64,0,52.68,0,78.62,0c0-4.71,0-9.56,0-14.36h-78.62
		C157.33,147.55,157.33,152.3,157.33,156.94z"/>
	<path class="st0" d="M439,229.79c-2.74,13.3-5.28,26.38-15.14,36.38c-9.76,9.9-22.62,12.78-35.76,15.06
		c13.48,2.14,26.33,5.21,36.13,15.35c9.62,9.94,11.98,22.99,14.8,36.07c2.86-31.21,19.26-48.72,51.12-51.47
		C458.26,278.41,441.95,260.91,439,229.79z M439.22,299.46c-1.02-4.73-1.88-9.45-5.35-13.05c-3.55-3.67-8.2-4.78-13.07-5.55
		c4.75-0.82,9.4-1.87,12.94-5.45c3.57-3.62,4.49-8.35,5.48-13.16c1.07,11.26,6.97,17.59,18.51,18.59
		C446.19,281.83,440.26,288.17,439.22,299.46z"/>
</g>
</svg>
