<?xml version="1.0" encoding="utf-8"?>
<!-- Generator: Adobe Illustrator 23.0.1, SVG Export Plug-In . SVG Version: 6.00 Build 0)  -->
<svg version="1.1" id="Layer_1" xmlns="http://www.w3.org/2000/svg" xmlns:xlink="http://www.w3.org/1999/xlink" x="0px" y="0px"
	 viewBox="0 0 472.85 408.56" style="enable-background:new 0 0 472.85 408.56;" xml:space="preserve">
<style type="text/css">
	.st0{fill:#1577AD;}
</style>
<g>
	<path class="st0" d="M364.19,408.55c-33.41-0.35-61.68-26.22-65.45-59.31c-3.06-26.89-7.05-53.68-10.55-80.53
		c-3.18-24.37-6.2-48.77-9.4-73.14c-2.83-21.57-5.87-43.11-8.69-64.68c-2.52-19.27-4.82-38.56-7.3-57.83
		c-2.1-16.31-4.26-32.61-6.54-48.9c-0.76-5.45,1.2-9.77,5.45-10.83c4.51-1.12,8.03,1.19,9.73,6.94c4.86,16.44,20.89,32.57,45.86,31
		c16.72-1.05,33.26-14.53,37.87-32.19c0.87-3.35,1.22-6.87,1.52-10.34c0.48-5.57,3.07-8.58,7.69-8.55c4.57,0.02,7.45,3.15,7.75,8.56
		c1.02,18.52,9.75,32.08,26.84,39.3c23.01,9.72,48.3-1.59,57.26-24.99c0.54-1.4,1-2.82,1.54-4.22c1.66-4.34,5.38-6.69,9.32-5.53
		c4.31,1.27,6.19,4.65,5.68,8.85c-1.61,13.35-3.55,26.67-5.29,40c-2.54,19.43-4.99,38.88-7.52,58.31
		c-2.44,18.77-4.92,37.54-7.39,56.31c-2.51,19.1-5.05,38.2-7.54,57.31c-2.49,19.1-4.9,38.22-7.39,57.32
		c-2.51,19.27-5.47,38.49-7.53,57.81c-3.08,28.77-26.05,53.56-54.54,57.98C371.79,407.81,367.98,408.11,364.19,408.55z M373.17,49.5
		c-0.4,0.28-0.79,0.56-1.19,0.84c0,2.29,0,4.58,0,6.87c0.02,52.83,0.12,105.66-0.05,158.49c-0.02,5.04,1.56,7.18,6.31,8.82
		c17.3,5.98,27.77,20.99,27.84,39.19c0.09,23.5,0.25,47,0.02,70.49c-0.21,21.77-19.76,40.35-41.73,40.15
		c-22.68-0.21-41.62-18.62-41.69-40.65c-0.07-23.33-0.05-46.66,0.01-69.99c0.04-18.22,10.93-33.59,28.34-39.33
		c4.53-1.49,5.79-3.72,5.78-8.23c-0.11-53.83-0.03-107.66-0.03-161.49c0-1.68-0.29-3.35-0.52-5.89
		c-25.5,22.42-51.83,23.78-80.07,5.82c0.16,2.4,0.18,3.67,0.35,4.92c1.47,11.21,2.97,22.42,4.44,33.63
		c2.85,21.76,5.68,43.53,8.54,65.3c2.82,21.43,5.69,42.86,8.48,64.29c2.53,19.46,4.95,38.93,7.49,58.39
		c2.81,21.6,6.12,43.14,8.43,64.8c2.77,25.99,23.36,46.37,49.47,46.72c25.85,0.34,46.91-17.47,51.08-43.72
		c1.77-11.16,2.91-22.42,4.35-33.64c2.72-21.28,5.38-42.56,8.17-63.83c4.21-32.15,8.52-64.28,12.78-96.42c3.97-30,7.93-60,11.86-90
		c0.41-3.13,0.58-6.3,0.96-10.54C424.19,72.79,398.02,70.85,373.17,49.5z M390.65,298.54c-0.02,0-0.04,0-0.06,0
		c0-11.5,0.35-23.01-0.1-34.49c-0.41-10.52-4.97-19.12-15.04-23.47c-9.53-4.12-18.98-3.37-27.34,3.15
		c-6.72,5.24-9.78,12.58-9.84,20.99c-0.15,22.66-0.36,45.32-0.06,67.98c0.18,13.61,11.18,26.39,28.05,25.51
		c13.21-0.69,24.27-12.03,24.38-26.17C390.73,320.87,390.65,309.71,390.65,298.54z"/>
	<path class="st0" d="M108.36,408.56c-33.92-0.51-61.81-26.03-65.63-59.69c-2.45-21.62-5.77-43.13-8.61-64.71
		c-2.8-21.24-5.46-42.5-8.23-63.75c-2.58-19.76-5.27-39.51-7.82-59.28c-2.81-21.74-5.45-43.51-8.28-65.25
		C6.64,71.69,3.38,47.49,0.11,23.3c-0.64-4.69,1.53-8.92,5.43-9.98c4.07-1.11,8.01,1.12,9.53,5.89C20.09,35,30.12,45.97,46.31,49.99
		c27.66,6.86,52.49-11.99,54.54-40.56c0.2-2.8,1.67-6.36,3.77-8c4.85-3.77,11.03,0.39,11.46,7.22
		c1.21,19.31,10.43,33.22,28.62,40.13c23.15,8.8,48.54-3.88,56.15-27.45c0.26-0.79,0.51-1.58,0.8-2.36c1.69-4.49,5.1-6.57,9.23-5.66
		c3.85,0.85,6.53,4.78,5.94,9.19c-2.82,21.24-5.81,42.45-8.58,63.7c-3.2,24.54-6.18,49.11-9.36,73.65
		c-2.76,21.25-5.73,42.47-8.51,63.71c-3.21,24.54-6.24,49.1-9.47,73.63c-2.53,19.26-4.66,38.61-8.02,57.73
		c-4.84,27.61-27.04,48.38-54.67,52.4C114.94,407.79,111.65,408.15,108.36,408.56z M20.83,55.04c-0.35,1.14-0.66,1.62-0.6,2.05
		c2.75,21.1,5.53,42.2,8.32,63.3c2.81,21.26,5.68,42.52,8.44,63.79c3.5,27.04,6.88,54.1,10.38,81.15
		c3.54,27.38,7.07,54.75,10.76,82.11c1.68,12.44,6.66,23.49,16.2,31.83c14.49,12.67,31.3,16.96,49.74,10.71
		c19.54-6.63,31.21-20.84,34.38-41.09c3.64-23.32,6.26-46.81,9.28-70.23c4.14-32.16,8.17-64.34,12.37-96.49
		c4.81-36.77,9.76-73.52,14.63-110.28c0.71-5.36,1.27-10.74,2.05-17.41c-28.54,18.31-55,16.52-80.49-5.76
		c-0.13,2.94-0.28,4.72-0.28,6.5c0.01,53.49,0.1,106.98-0.04,160.47c-0.01,4.97,1.46,7.28,6.31,8.89
		c16.95,5.64,27.65,20.75,27.82,38.66c0.15,15.5,0.14,30.99,0.09,46.49c-0.03,9.99,1,20.2-0.65,29.94
		c-4.07,23.94-24.38,35.83-44.08,34.52c-22.16-1.47-38.73-19.59-38.8-41.41c-0.08-23.16-0.04-46.32,0.08-69.49
		c0.09-17.34,10.48-32.74,26.86-38.32c6.02-2.05,7.28-5.04,7.26-10.77c-0.16-53.32-0.06-106.65-0.06-159.97
		c0-1.52-0.29-3.04-0.53-5.47C74.8,71.23,48.44,72.52,20.83,55.04z M134.69,298.22c-0.06,0-0.12,0-0.17,0
		c0-11.66,0.38-23.34-0.12-34.98c-0.41-9.75-4.88-17.62-13.92-22.13c-9.06-4.52-18.13-4.01-26.62,1.41
		c-7.94,5.07-11.48,12.97-11.59,22.08c-0.28,22.49-0.28,44.98-0.03,67.47c0.04,4.02,1.19,8.33,2.95,11.98
		c5.3,11.03,17.53,16.48,29.37,13.69c11.59-2.74,19.94-13.18,20.11-25.52C134.81,320.88,134.69,309.55,134.69,298.22z"/>
</g>
</svg>
