<?xml version="1.0" encoding="utf-8"?>
<!-- Generator: Adobe Illustrator 23.0.1, SVG Export Plug-In . SVG Version: 6.00 Build 0)  -->
<svg version="1.1" id="Layer_1" xmlns="http://www.w3.org/2000/svg" xmlns:xlink="http://www.w3.org/1999/xlink" x="0px" y="0px"
	 viewBox="0 0 361.18 413" style="enable-background:new 0 0 361.18 413;" xml:space="preserve">
<style type="text/css">
	.st0{fill:#1577AD;}
</style>
<g>
	<path class="st0" d="M192.01,413c-5.59-3.82-6.07-6.27-2.3-11.94c15.05-22.59,30.06-45.2,45.23-67.71
		c1.81-2.69,1.84-4.27-0.37-6.82c-16.72-19.28-30.74-40.38-42.16-63.21c-0.71-1.42-1.48-2.82-2.34-4.44
		c-13.89,3.08-27.62,6.12-41.36,9.16c-3.54,0.78-7.12,1.41-10.61,2.37c-2.89,0.8-5.34,0.44-7.32-1.84
		c-2.02-2.32-1.75-4.85-0.67-7.54c8.46-21.04,16.87-42.1,25.3-63.16c3.84-9.59,7.92-19.1,11.41-28.82c1.23-3.42,1.16-7.35,1.4-11.07
		c2.84-44.04,19.43-83.11,43.76-119.17c8.17-12.11,17.68-23.33,26.87-34.71c4.62-5.72,8.27-5.28,13.16,0.25
		c23.63,26.71,42.57,56.32,55.69,89.54c8.9,22.54,14.09,45.89,14.85,70.17c0.06,1.95,0.62,3.97,1.35,5.8
		c11.95,30.06,23.94,60.1,35.99,90.11c1.21,3,2.22,5.83-0.22,8.65c-2.42,2.81-5.38,2.25-8.53,1.54
		c-16.75-3.78-33.53-7.46-50.7-11.27c-0.61,1.1-1.29,2.21-1.87,3.37c-11.61,23.49-26,45.16-43.22,64.9
		c-2.04,2.34-1.42,3.73-0.01,5.83c15.18,22.66,30.3,45.37,45.42,68.07c3.78,5.68,3.31,8.08-2.28,11.94C263,413,227.5,413,192.01,413
		z M189.92,111.88c-0.36,0.81-0.77,1.5-1,2.25c-9.37,30.69-11.11,61.67-3.75,93.05c8.05,34.29,23.88,64.85,44.51,93.1
		c4.8,6.58,10.02,12.85,15.28,19.56c1.37-1.49,2.29-2.43,3.14-3.42c12.66-14.89,23.76-30.86,33.16-48
		c22.13-40.36,34.18-82.81,26.15-129.23c-1.59-9.2-4.07-18.24-6.19-27.59C263.64,126.07,226.83,126,189.92,111.88z M296.66,99.9
		C284.26,68.35,267,40.88,245.45,15.91c-16.62,15.79-46.48,64.79-51.15,84.14C228.23,113.28,262.01,113.25,296.66,99.9z
		 M245.25,340.45c-13.42,20.13-26.39,39.6-39.64,59.48c26.7,0,52.65,0,79.29,0C271.62,380.02,258.68,360.61,245.25,340.45z
		 M169.34,196.97c-7.63,19.08-15.42,38.59-23.52,58.85c13.63-3.03,26.15-5.82,38.15-8.49C179.02,230.26,174.17,213.58,169.34,196.97
		z M306.51,247.36c12.23,2.69,24.78,5.46,38.14,8.41c-8.14-20.34-15.88-39.71-23.52-58.81
		C316.31,213.59,311.49,230.22,306.51,247.36z"/>
	<path class="st0" d="M98.42,413c-2.85-0.7-5.73-1.29-8.54-2.11c-22.54-6.52-38.1-27.2-38.12-50.69
		c-0.02-33.05-0.03-66.1,0.05-99.15c0.01-2.74-0.67-4.15-3.36-5.42c-9.73-4.59-15.86-12.28-15.91-23.24
		c-0.05-11.16,6.2-18.88,16.06-23.56c2.49-1.18,3.3-2.48,3.21-5.12c-0.19-6.04,0.08-12.09-0.12-18.13
		c-0.33-10.02-7.71-17.38-17.71-17.93c-17.88-0.98-28.66-9.78-33.32-27.17c-0.1-0.36-0.44-0.65-0.67-0.97c0-2.69,0-5.38,0-8.07
		c0.3-0.72,0.7-1.41,0.88-2.16c3.72-15.38,16.93-25.9,32.74-25.94c16.67-0.04,33.34,0.04,50.02-0.03
		c14.11-0.06,22.74-11.56,19.03-25.21c-2.2-8.07-8.56-13.83-16.91-13.59c-16.93,0.49-35.31-14.14-34.09-36.45
		c0.5-9.1,0.08-18.26,0.08-27.69c4.17,0,8.12,0,12.67,0c0,3.09,0,6.26,0,9.43c0,7.39-0.03,14.79,0.03,22.18
		c0.08,11.99,7.25,19.31,19.24,19.71c15.31,0.52,28.74,11.66,31.65,26.27c3.8,19.02-11.88,37.8-31.9,37.98
		c-16.94,0.15-33.88-0.02-50.82,0.05c-14.22,0.07-22.74,11.32-19.14,25.1c2.24,8.6,8.82,13.54,18.46,13.86
		c14.5,0.48,27.34,9.95,30.98,23.86c1.47,5.6,1.49,11.7,1.39,17.56c-0.11,6.61,0.59,11.03,7.55,15.29
		c17.76,10.85,15.08,35.15-4.1,43.97c-2.71,1.25-3.39,2.68-3.38,5.41c0.08,33.61-0.01,67.23,0.08,100.84
		c0.06,22.31,16.8,38.43,39.53,38.32c21.67-0.1,38.06-16.65,38.13-38.54c0.03-9.64,0.01-19.29,0.01-30.15
		c-5.27,5.23-9.8,9.68-14.26,14.19c-4.43,4.47-8.79,9.01-13.34,13.7c-3.13-3.28-5.8-6.08-8.73-9.15c0.65-0.74,1.35-1.66,2.16-2.47
		c11.49-11.51,23.01-23.01,34.5-34.53c2.26-2.27,4.57-4.31,8.1-2.93c3.83,1.5,4.28,4.67,4.26,8.26
		c-0.07,13.71-0.03,27.43-0.01,41.14c0.04,26.28-18.46,48.13-44.43,52.49c-0.77,0.13-1.5,0.51-2.25,0.77
		C104.88,413,101.65,413,98.42,413z M71.12,232.38c0.06-8.09-4.9-13.11-12.93-13.12c-8.18-0.01-13.07,4.81-13.13,12.93
		c-0.06,8.1,4.89,13.12,12.92,13.13C66.13,245.33,71.06,240.48,71.12,232.38z"/>
	<path class="st0" d="M205.09,148.29c0.06-0.47,0.04-1.01,0.2-1.49c1.02-3.17,2.08-6.33,3.3-10.01c24.36,7.05,48.68,7.16,73.2-0.01
		c0.74,2.13,1.42,3.98,2.03,5.85c0.61,1.88,1.16,3.79,1.72,5.63C266.85,156.59,222.74,156.57,205.09,148.29z"/>
	<path class="st0" d="M281.91,162.55c1.34,4.22,2.5,7.87,3.78,11.89c-27.11,8.12-53.78,8-80.92,0.04c1.28-4.06,2.43-7.72,3.74-11.89
		C232.9,169.62,257.21,169.79,281.91,162.55z"/>
	<path class="st0" d="M239.08,70.56c0-4.2,0-8.05,0-12.16c4.11,0,8.05,0,12.25,0c0,4.01,0,7.96,0,12.16
		C247.32,70.56,243.38,70.56,239.08,70.56z"/>
</g>
</svg>
