<?xml version="1.0" encoding="utf-8"?>
<!-- Generator: Adobe Illustrator 23.0.1, SVG Export Plug-In . SVG Version: 6.00 Build 0)  -->
<svg version="1.1" id="Layer_1" xmlns="http://www.w3.org/2000/svg" xmlns:xlink="http://www.w3.org/1999/xlink" x="0px" y="0px"
	 viewBox="0 0 500.55 495.93" style="enable-background:new 0 0 500.55 495.93;" xml:space="preserve">
<style type="text/css">
	.st0{fill:#1577AD;}
</style>
<g>
	<path class="st0" d="M319.77,72.59c-1.12-0.52-2.15-1.02-3.19-1.5c-11.47-5.25-16.29-14.82-13.75-27.33
		c5.13-25.24,17.9-38.82,41.12-42.8c11.63-1.99,23.33-0.77,34.61,2.54c31.27,9.19,61.64,20.8,88.09,40.21
		c31.18,22.89,40.31,51.59,29.62,88.87c-2.33,8.13-5.2,16.15-8.41,23.99c-6.77,16.56-24.6,24.62-41.61,18.95
		c-7.73-2.57-15.22-5.85-22.95-8.4c-2.28-0.75-5.37-0.88-7.5,0.05c-61.75,26.93-123.43,54.02-185.07,81.21
		c-1.39,0.61-3.2,2.78-3.04,3.99c1.22,9.4-2.61,16.51-9.39,22.44c-4.52,3.95-9.02,7.91-13.71,11.66c-2.03,1.63-2.41,3.14-1.46,5.51
		c4.05,10.2,7.82,20.52,12.06,30.63c0.71,1.71,3.09,3.47,4.96,3.82c10.13,1.9,20.33,3.5,30.54,4.95
		c21.57,3.06,33.76,23.42,25.88,43.71c-3.49,8.99-7.45,17.79-11.19,26.69c-0.7,1.66-1.32,3.36-2.21,5.62
		c7.87,2.39,15.45,4.72,23.05,7c13.53,4.07,27.17,7.82,40.58,12.27c13.54,4.49,21.03,16.4,20.03,30.53
		c-1.19,16.9-9.39,28.07-23.61,30.61c-10.96,1.96-22.08,3.27-33.19,4.05c-24.23,1.71-48.49,4.06-72.75,4.06
		c-43.27,0.01-85.26-8.62-126.34-22.01c-23.71-7.73-47.62-14.85-71.28-22.71c-10.91-3.62-17.9-11.44-19.36-23.2
		c-1.53-12.26,2.96-22.22,13.69-28.26c4.69-2.64,10.69-4.07,16.12-4.13c34.32-0.36,68.65-0.27,102.97-0.08
		c4.22,0.02,5.74-1.66,7.68-5.14c4.23-7.58,3.63-14.13-0.15-21.85c-8.61-17.63-16.13-35.79-24.38-53.6
		c-1.03-2.23-3.45-4.45-5.75-5.36c-18.41-7.28-27.16-26.56-19.98-44.99c1.57-4.02,3.4-7.97,5.47-11.76
		c1.62-2.97,1.07-4.81-1.18-7.35c-12.12-13.72-15.21-29.35-8.13-46.37c7.22-17.35,23.91-26.97,43.37-25.67
		c16.75,1.12,32.01,13.62,36.83,30.64c1.1,3.89,2.54,5.99,6.88,5.78c3.13-0.15,6.36,0.15,9.44,0.77c4.39,0.89,5.76-0.7,6.12-5.03
		c1-12.11,2.32-24.19,3.81-36.25c1.97-15.95,15.51-24.58,30.79-20.01c1.31,0.39,3.38,0.18,4.38-0.63
		c30.26-24.84,60.44-49.78,90.61-74.73C319.22,73.69,319.4,73.18,319.77,72.59z M205.06,337.36c-4.81-12.63-9.62-25.26-14.91-39.15
		c-15.93,17.79-34.2,25.36-57.94,16.6c7.23,16.1,13.67,30.45,20.61,45.91c2.47-5.82,4.33-10.41,6.36-14.93
		c5.83-12.97,18.18-19.57,31.77-16.04c5.05,1.31,9.49,4.94,14.21,7.51c3.45,6.21,7.01,12.38,6.24,19.92
		c-0.23,2.24-0.32,4.5-0.48,6.85c3.21,0.44,5.82,0.84,8.45,1.15c2.81,0.33,5.63,0.8,8.44,0.79c9.47-0.04,10.9,6.94,7.68,14.07
		c-8,17.72-15.37,35.72-22.85,53.67c-2.56,6.15-0.05,12.03,5.75,14.5c5.52,2.35,11.54,0.17,14.04-5.72
		c10.47-24.62,20.93-49.24,30.98-74.03c4.1-10.1-1.9-20.25-12.59-22.28c-8.32-1.58-16.77-2.51-25.1-4.09
		C218.79,340.79,211.94,338.96,205.06,337.36z M232.55,231.67c57.92-25.44,114.66-50.37,171.77-75.46
		c-9.57-10.79-10.81-22.62-7.14-35.49c3.49-12.26,5.08-24.79,4.03-37.54c-1.21-14.76-6.68-27.1-21.63-32.37
		c-10.78-3.8-21.88-6.87-33.05-9.28c-7.95-1.72-16.41-2-23.98,1.87c-2.59,1.33-5.38,4.41-5.9,7.12c-0.71,3.66,2.41,6.11,6.08,7.43
		c7.5,2.71,14.92,5.65,22.38,8.48c12.7,4.82,12.72,4.82,19.19-7.11c2.11-3.89,5.47-4.99,9.29-3.54c3.75,1.43,5.31,4.82,4.05,8.58
		c-1.25,3.74-2.86,7.55-5.17,10.7c-6.56,8.94-16.53,11.39-28.12,6.38c-6.03-2.61-9.98-1.75-15,2.48
		c-28.67,24.15-57.66,47.92-86.67,71.67c-3.86,3.16-6.67,5.77-4.14,11.36c1.13,2.51,0.58,5.93,0.31,8.89
		c-0.66,7.12-1.62,14.22-2.43,21.33C235.18,208.24,233.95,219.29,232.55,231.67z M132.03,410.55c-1.1-0.32-1.41-0.5-1.73-0.5
		c-34.15-0.02-68.3-0.07-102.45,0.04c-2.21,0.01-4.62,0.8-6.58,1.88c-5.16,2.86-7.57,7.72-6.98,13.37
		c0.68,6.5,4.62,10.73,11.06,12.73c21.59,6.69,43.23,13.27,64.69,20.37c36.65,12.12,74.01,20.43,112.61,22.86
		c38.97,2.45,77.45-2.59,115.94-7.39c8.97-1.12,12.99-6.23,13.58-15.68c0.68-10.8-2.1-15.46-11.32-18.28
		c-15.42-4.72-30.88-9.29-46.33-13.91c-5.67-1.7-11.34-3.37-17.17-5.11c-3.87,9.13-7.44,17.71-11.13,26.24
		c-3.12,7.22-8.21,12.7-15.81,14.94c-10.02,2.95-19.18,1.11-26.44-6.91c-7.5-8.27-8.62-17.8-4.47-27.89
		c5.81-14.15,11.94-28.17,17.91-42.26c0.68-1.6,1.24-3.25,2.04-5.34c-3.52-0.38-6.37-0.39-9.06-1.04c-4.08-0.99-6.14,0.05-7.81,4.24
		c-7.66,19.14-15.54,38.2-23.77,57.1c-6.12,14.04-21.9,20.21-35.46,14.49c-13.52-5.7-19.99-21.3-14.68-35.47
		C129.7,416.28,130.84,413.55,132.03,410.55z M325.16,27.19c16.73-2.43,31.79,0.7,46.62,5.34c11.15,3.49,22.21,7.23,30.29,16.45
		c9.18,10.48,13.24,22.9,13.86,36.6c0.64,14.28-1.95,28.14-5.46,41.9c-2.79,10.93,1.34,19.05,11.7,23.27
		c9.08,3.7,18.22,7.27,27.42,10.66c11.19,4.12,21.05-0.41,25.43-11.52c2.01-5.1,3.96-10.24,5.66-15.45
		c4.37-13.42,7.03-27.05,4.17-41.22c-3.85-19.07-16.45-31.6-31.89-41.62c-23.33-15.14-49.02-25.23-75.45-33.48
		c-10.08-3.14-20.46-4.53-31.05-2.97C338.2,16.36,331,19.38,325.16,27.19z M217.32,236.41c0.83-7.08,1.63-13.64,2.38-20.21
		c1.67-14.71,3.3-29.42,4.96-44.14c0.47-4.17-1.37-7.12-4.98-8.91c-3.54-1.75-7.24-1.27-9.5,1.8c-1.74,2.37-2.73,5.63-3.09,8.61
		c-1.74,14.53-3.01,29.12-4.72,43.66c-0.9,7.7-3.58,9.5-11.41,8.71c-5.96-0.6-11.94-1.03-17.89-1.73c-3.45-0.41-5.2,0.4-6.31,4.18
		c-3.59,12.29-11.33,21.31-23.11,26.63c-10.79,4.87-21.8,5.41-33.23,1.03c-2.21,4.65-4.43,8.91-6.3,13.32
		c-4.94,11.63,0.9,23.83,13.13,27.09c10.11,2.7,20.32,5.04,30.51,7.45c6.14,1.45,11.94,0.34,17.19-3.09
		c2.63-1.72,5.07-3.78,7.47-5.82c12.55-10.69,25.1-21.38,37.57-32.16c4.25-3.68,4.61-8.26,1.3-12.28
		c-3.32-4.02-7.74-4.35-12.28-0.83c-1.84,1.43-3.59,2.98-5.38,4.47c-10.87,9.07-21.7,18.18-32.62,27.19
		c-4.55,3.75-8.93,3.46-11.69-0.51c-2.31-3.32-1.56-7.2,2.35-10.5c11.07-9.34,22.42-18.36,33.27-27.95
		C194.47,234,204.47,229.85,217.32,236.41z M154.28,216.31c0.03-15.97-12.52-28.71-28.31-28.74c-15.76-0.03-28.6,12.79-28.62,28.56
		c-0.02,15.69,12.82,28.39,28.69,28.37C141.78,244.48,154.25,232.03,154.28,216.31z M197.25,356.94
		c0.02-6.91-4.27-12.17-10.24-13.56c-5.76-1.34-11.86,1.85-14.44,8c-10.04,23.92-19.99,47.87-29.9,71.84
		c-3.28,7.94-0.74,14.99,6.24,17.94c7.1,3,13.85-0.05,17.21-8.07c9.96-23.77,19.83-47.59,29.7-71.4
		C196.56,359.88,196.96,357.92,197.25,356.94z"/>
	<path class="st0" d="M414.86,285.44c0.65-0.53,1.07-0.79,1.38-1.15c13.42-15.69,29.25-18.93,47.75-9.78
		c25.21,12.47,37.16,36.23,29.09,64.64c-7.38,25.97-16.59,51.65-27.57,76.32c-11.65,26.19-32.8,42.76-61.6,48.15
		c-5.03,0.94-10.26,1.19-15.38,1.04c-4.66-0.14-7.35-3.33-7.25-7.3c0.1-4.17,3.18-6.89,8.07-6.93c25.87-0.2,45.8-11.87,58.74-33.57
		c7.66-12.85,12.59-27.41,17.97-41.5c5.09-13.33,10.06-26.83,13.46-40.66c5.83-23.72-5.6-42.86-28.36-49.76
		c-10.5-3.19-21.28,1.73-25.17,11.47c-4.07,10.22,0.19,20.98,10.47,25.81c3.43,1.61,6.56,3.67,5.97,7.59
		c-0.35,2.35-2.52,4.93-4.6,6.34c-1.38,0.93-4.3,0.56-6.08-0.23c-12.51-5.59-20.41-15.03-21.31-28.93
		c-0.42-6.47-3.13-10.22-8.72-12.51c-6.24-2.56-11.92-1.13-16.66,3.19c-4.64,4.22-6.26,9.74-4.52,15.91
		c1.38,4.91,4.47,8.37,9.18,10.55c5.06,2.35,6.74,6.31,4.77,10.35c-1.92,3.92-6.22,4.88-11.28,2.53
		c-15.76-7.31-22.37-26.85-14.16-41.87c8.58-15.7,27.88-20.88,42.99-11.54C412.89,284.14,413.72,284.7,414.86,285.44z"/>
	<path class="st0" d="M303.58,390.53c19.4-0.26,38.15-3.26,55.04-13.54c10.5-6.4,18.66-14.91,22.89-26.8
		c1.61-4.52,5.52-6.25,9.54-4.76c3.86,1.43,5.55,5.25,3.9,9.9c-5.93,16.75-17.83,28.23-33.11,36.46
		c-21.52,11.6-44.92,13.82-68.8,13.22c-4.71-0.12-7.85-3.53-7.67-7.55c0.18-4.08,3.39-6.82,8.21-6.96c1.66-0.05,3.33,0.02,5,0.03
		C300.25,390.54,301.92,390.53,303.58,390.53z"/>
	<path class="st0" d="M361.16,430.91c-3.15-0.2-6.3-0.32-9.44-0.63c-4.47-0.44-7.36-3.44-7.22-7.32c0.14-4.09,3.45-6.62,8.19-6.89
		c7.58-0.43,15.54,0.07,22.61-2.16c7.37-2.32,14.08-7.06,20.68-11.36c4.97-3.24,9.95-3.02,12.2,1.65c1.83,3.79,0.27,6.67-2.55,9.25
		C393.03,424.96,378.07,430.32,361.16,430.91z"/>
	<path class="st0" d="M416.88,395.93c-3.97-0.04-7.11-3.4-7-7.5c0.12-4.5,3.53-8.18,7.64-8.25c4.12-0.07,7.38,3.08,7.37,7.1
		C424.87,391.59,420.83,395.96,416.88,395.93z"/>
</g>
</svg>
