<?xml version="1.0" encoding="utf-8"?>
<!-- Generator: Adobe Illustrator 23.0.1, SVG Export Plug-In . SVG Version: 6.00 Build 0)  -->
<svg version="1.1" id="Layer_1" xmlns="http://www.w3.org/2000/svg" xmlns:xlink="http://www.w3.org/1999/xlink" x="0px" y="0px"
	 viewBox="0 0 891.2 457.89" style="enable-background:new 0 0 891.2 457.89;" xml:space="preserve">
<style type="text/css">
	.st0{fill:#1577AD;}
	.st1{fill:#D33726;}
</style>
<g>
	<path class="st0" d="M280.29,336.01c-6.35-0.74-12.92-3.16-18.12,3.22c-2.61,3.2-6.31,1.02-9.11,0.5
		c-3.67-0.68-6.01-0.37-7.24,3.16c-0.48,1.37-1.2,1.48-2.17,1.19c-1.9-0.57-4.02-1.05-4.43-3.47c-1.02-5.93-4.09-11.79-0.75-18.18
		c-4.08,2.34-7.86,5.15-8.84,9.77c-0.67,3.14-1.29,4.42-4.81,4.68c-4.97,0.37-10.23,0.63-13.15,6.36c-0.81,1.59-4.29,2.17-6.65,2.51
		c-2.87,0.41-5.39,1.61-8.08,2.43c-4.87,1.48-8.84,3.78-9.41,9.56c-0.13,1.3-0.72,2.56-1.2,3.81c-0.35,0.93-0.84,1.98-2.05,1.79
		c-1.31-0.2-1.3-1.46-1.22-2.39c0.46-5.46-1.83-5.93-6.12-3.67c-2.34,1.23-4.93,1.99-7.42,2.94c-3.07,1.18-6.41,4.59-8.1-1.88
		c-0.43-1.63-3.04-3.9-6.03-1.09c-2.89,2.73-6.45,3.36-9.35-0.46c-0.8-1.06-1.95-1.22-2.53-0.44c-3.56,4.79-10.26,1.05-13.96,5.27
		c-7.25-1.57-10.37,4.37-12.25,8.78c-4.03,9.44-12.38,14.62-18.65,21.79c-4.1,4.7-8.19,9.65-14.76,11.26
		c-1.28,0.31-1.33,1.78-1.81,2.82c-0.54,1.19-1.01,3.06-1.92,3.34c-5.54,1.73-7.68,7.34-12.14,10.24c-1.12,0.73-2.12,1.69-3.51,1.76
		c-2.12,0.11-6.64-2.21-2.8,3.33c0.86,1.24-1.58,3.24-3.1,4.08c-5.36,2.96-10.49,7.29-13.07,11.96c-3.42,6.19-7.83,5.75-12.95,6.46
		c-4.33,0.6-6.98,4.09-9.68,7.23c-1.52,1.77-3.06,4-5.75,2.99c-2.57-0.97-0.79-3.54-1.32-5.2c-1.47-4.62-0.37-8.24,2.75-11.74
		c1.07-1.21,0.62-3.26,0.16-4.85c-0.58-2.04-0.86-4.28,0.37-5.8c4.49-5.58,4.74-12.81,7.79-18.95c2.4-4.85,1.62-10.44,2.22-15.69
		c0.34-2.97,0.18-5.97,1.29-8.83c0.83-2.14,0.71-4.32-0.57-6.23c-1.06-1.58-0.73-3.07-0.52-4.76c0.18-1.39,3.99-1.38,1.58-3.1
		c-2.46-1.76-4.05-5.57-8.3-4.24c-3.67,1.14-7.32,0.66-11.13-0.15c-2.11-0.45-4.73-1.57-7.12-0.07c-1.43,0.9-2.19-0.03-2.6-1.26
		c-0.63-1.89-1.14-3.82-1.69-5.74c-0.35-1.23,0.16-2.04,1.38-2.07c3.31-0.08,6.76-0.85,9.89,0.44c3.04,1.26,5.68,3.12,9.33,1.72
		c2.3-0.88,2.51,1.79,3.32,3.57c0.76-2.02-0.74-5.18,2.43-4.85c2.24,0.23,2.09,2.26,1.4,4.35c-0.26,0.8,2.1,2.22,3.12,1.09
		c3.61-4.02,4.44-0.91,5.62,1.88c0.45,1.06,1.05,2.07,1.69,3.04c0.37,0.56,0.99,0.99,1.71,0.65c0.72-0.35,0.86-1.19,0.43-1.68
		c-2.53-2.89,0.02-6.67-2-9.96c-1.2-1.96,1.88-5.78,3.66-5.07c4.94,1.97,3.66-0.73,2.73-3.87c2.99,0.84,3.97,2.53,4.46,4.68
		c0.26,1.14,0.41,2.47,1.95,2.49c1.8,0.02,3.16-0.96,4.15-2.39c0.8-1.14,0.54-2.27-0.47-3.12c-3.15-2.64-3.33-4.18,1.09-5.87
		c2.4-0.92,4.01-3.83,6.06-5.76c6.23-5.88,13.9-9.42,21.48-13.1c3.02-1.46,8.01-9.01,7.99-12.3c-0.02-2.96,0.94-5.09,4.18-4.88
		c3.59,0.23,6.08-0.78,9.08-3.2c4.45-3.59,9.49-6.88,14.55-9.48c6.39-3.28,12.3-7.23,18.51-10.75c3.13-1.77,6.22-2.49,9.28-0.06
		c1.53,1.21,2.83,0.6,4.09-0.27c1.21-0.83,1.83-1.88,0.76-3.36c-1.79-2.5,0.11-2.72,1.91-2.97c0.16-0.02,0.34-0.03,0.5,0
		c7.05,0.94,13.36-0.72,19.14-4.96c4.64-3.42,8.34-0.44,11.78,2.47c0.84,0.71,1.16,2.21,2.61,1.78c1.44-0.43,1.18-1.85,1.21-2.98
		c0.06-1.78,0.9-3.1,2.05-4.4c0.85-0.96,1.26-2.3,1.95-3.42c1.03-1.65-1.57-3.46,0.35-5.11c1.46-1.26,8.99-4.45,12.09-4.79
		c-0.42,2.34-2.41,3.02-3.89,4.1c-2.3,1.68-2.9,3.88-1.07,5.99c1.71,1.97,4.12,2.94,6.65,1.1c6.28-4.55,13.69-6.74,20.57-10.05
		c3.91-1.88,7.12-5,11.23-6.75c1.12-0.48,3.4-2.84,0.65-5.22c-1.53-1.32-0.2-3.13,0.92-4.37c2.74-3.06,10.74-3.84,13.79-0.99
		c3.81,3.56,7.17,3.36,10.97,0.1c2.41-2.06,5.24-3.5,8.58-3.68c1.12-0.06,2.46-0.31,3.29-0.99c9.15-7.4,20.59-11.23,29.4-19.3
		c3.94-3.61,9.13-6.43,14.94-2.11c1.26,0.93,3.48,0.84,5.24,0.76c1.73-0.08,2.9,0.3,3.64,1.89c1.65,3.56,4.69,3.46,7.69,2.53
		c6.97-2.15,13.88-4.54,20.81-6.83c2.42-0.8,4.09-2.57,4.67-4.85c0.91-3.53,3.33-4.19,6.41-5.19c5.98-1.95,10.93-5.95,14.29-11.23
		c4.16-6.55,11.96-8.63,17.39-4.01c3.92-10.24,5.72-11.29,17.55-11.5c5.07-0.09,9.85-1.47,13.15-5.81c0.69-0.91,1.81-2.37,0.95-3.1
		c-3.98-3.4,0.28-4.22,1.77-4.79c4.71-1.78,7.85-5.51,11.67-8.38c0.94-0.7,2.27-2.08,3.49-0.78c0.91,0.97-0.06,2.23-0.8,3.1
		c-2.43,2.84-0.48,3.3,1.86,3.55c5.5,0.59,9.88-0.4,12.1-6.51c1.14-3.13,4.43-3.86,7.82-4.92c5.88-1.83,11.99-2.75,17.84-4.96
		c6.34-2.41,11.68-5.95,17.01-9.76c1.66-1.19,3.36-2.49,5.33-2.57c9.88-0.41,18.23-7.1,28.27-6.77c1.63,0.05,1.96-1.59,2.77-2.57
		c2.75-3.31,4.63-3.27,7.04,0.14c4.41,6.23,5.23,6.25,10.94,1.39c6.66-5.66,14.35-8.13,23.1-6.63c3.66,0.63,6.91,0.33,9.45-2.89
		c0.65-0.82,1.97-1.57,2.98-1.57c8.51-0.06,16.18-3.81,24.35-5.31c2.06-0.38,4.22-1.23,4.44-3.44c0.52-5.13,3.32-3.64,5.81-2.1
		c6.18,3.83,7.78,3.9,13.57-0.16c0.4-0.28,0.88-0.67,1.32-0.67c8.76,0.14,17.37-2.62,26.18-1.31c1.8,0.27,3.89,1.09,5.38,0.49
		c9.8-3.95,20.4-1.58,30.3-4.18c-1.54-2.9-4.2-3.93-8.86-3.21c-2.15,0.34-5.26,1.12-6.03-0.56c-1.08-2.35-0.8-5.51-0.46-8.24
		c0.25-1.98,6.01-1.74,7.37,0.38c0.58,0.91,0.6,2.18,0.87,3.28c3.61-3.52,3.61-3.52,9.21,4.41c0.75-0.82-0.03-1.53-0.12-2.3
		c-0.17-1.37-2.2-2.98-0.58-3.93c1.38-0.81,3.54-0.47,5.33-0.37c1.41,0.08,1.35,1.16,0.91,2.21c-0.57,1.39-0.98,2.88-1.75,4.14
		c-2.15,3.53-0.24,5.47,2.85,5.23c3.98-0.31,6.33,1.57,9.15,3.73c2.72,2.09,6.03,3.56,9.47,4.39c2.12,0.52,4.15,1.12,5.88,2.59
		c1.3,1.11,2.91,1.76,4.65,1.36c4.72-1.08,9.79-0.77,14.24-2.24c7.12-2.35,14.5-3.21,21.62-3c7.92,0.23,16.14-0.85,23.71,1.1
		c4.68,1.2,9.73,2.17,14.24,4.39c3.1,1.53,6.13,1.74,8.74-0.92c1.81-1.84,4.16-2.25,6.43-2.3c14.37-0.29,28.19-3.6,41.95-7.35
		c0.32-0.09,0.63-0.27,0.94-0.26c2.56,0.09,13.33,9.2,13.84,11.69c0.31,1.5,0.56,3.1-0.71,4.22c-1.27,1.12-2.49,0.06-3.65-0.52
		c-3.95-1.98-8.28-2.62-12.56-3.08c-5.8-0.61-11.07,0.27-15.01,5.56c-2.72,3.65-5.88,7.32-11.51,6.36
		c-1.68-0.29-3.35,1.01-4.06,2.53c-3.12,6.7-9.76,9.96-14.57,14.99c-2.78,2.91-6.78,4.09-10.85,4.65c-2.84,0.39-4-0.66-2.82-3.29
		c1.68-3.77-1.5-6.23-2.13-9.35c-0.71-3.53-2.35-5.69-6.18-6.7c-2.94-0.78-5.25-3.39-8.33-4.41c-5.14-1.71-10.11-3.28-15.21,0.29
		c-1.94,1.36-4.51,1.31-6.82,0.9c-5.53-0.97-10.91,0.2-16.27,1.13c-2.5,0.43-3.46,0.16-2.16-2.22c1.06-1.94-0.62-5.95,3.94-5.51
		c0.64,0.06,0.77-1,0.32-1.6c-0.83-1.09-2.15-1.48-3.05-0.54c-3.91,4.1-11.03,5.19-11.55,12.56c-0.11,1.5-1.02,1.55-3.26,0.96
		c-5.02-1.35-8.74-5.11-13.7-6.12c-4.27-0.87-9.47,3.36-11.58,9.69c3.52-0.56,6.99-0.62,7.67,3.76c0.39,2.54-0.66,4.75-3.16,5.63
		c-3.76,1.32-4.84-1.77-6.17-4.3c-1.72,0.35-1.47,2.08-2.21,3.06c-2.11,2.79-4.09,4.59-6.94,0.79c-1.5-1.99-3.88-2.93-6.15-2.93
		c-4.82,0-9.01-2.1-13.39-3.45c-6.28-1.94-12.71-0.92-19.04-1.47c-5.82-0.5-8.08,2.8-8.42,8.71c-0.15,2.56,1.28,6.37-1.37,7.4
		c-4.95,1.94-8.84,6.87-15.1,5.46c-5.25-1.18-10.54-1.42-15.34,1.86c-0.53,0.36-1.26,0.64-1.88,0.62c-7.97-0.25-9.4,4.39-9.95,11.33
		c-0.79,9.97-3.75,11.99-13.86,13c-3.62,0.36-7.11,1.56-10.84,1.53c-11.18-0.09-12.35-1.01-13.05-11.85
		c-0.07-1.16,0.1-2.26-0.56-3.31c-3.44-5.45-4.07-11.12-1.45-17.12c0.48-1.09,1.34-2.87-0.34-3.51c-1.59-0.61-2.36,1.2-2.71,2.32
		c-1.37,4.42-6.07,8.46-1.79,13.65c0.7,0.85,0.4,1.81,0.05,2.83c-1.91,5.37,0.33,9.69,3.8,13.53c1.16,1.28,2.79,2.41,1.52,4.15
		c-1.27,1.75-3.12,0.84-4.42-0.21c-1.45-1.17-3.89-1.55-3.76-4.2c0.06-1.2,0.86-3.05-1.15-3.15c-1.23-0.06-2.81,1.37-2.75,2.52
		c0.22,4.04-2.75,4.11-5.33,5.09c-1.96,0.74-4.29,0.77-5.34,3.62c-0.71,1.95-3.3,2.79-5.63,1.64c-3.32-1.63-5.07-4.42-4.41-8.06
		c0.67-3.74-0.05-6.78-3.45-10.58c0.36,4.54,0.49,7.8,0.9,11.03c0.45,3.5-0.86,5.74-3.56,8.11c-3.76,3.29-8.27,4.37-12.66,5.82
		c-3.09,1.02-4.76-1.62-5.19-4.04c-0.57-3.23-2.19-6.28-1.71-9.73c0.18-1.3-0.25-2.64-1.57-3.84c-3.58,2.35-2.4,7.37-2.08,9.09
		c1.18,6.44-3.72,6.87-6.92,8.67c-2.15,1.21-3.92,1.41-2.45,4.56c0.71,1.52-0.14,3.96-2.26,4.38c-2.48,0.49-2.99-1.91-3.27-3.58
		c-0.64-3.86,0.97-8.08-1.87-11.6c-0.62-0.77-0.79-2.69-2.36-1.42c-4.8,3.88-6.12-0.47-8.23-3.45c-2.99,3.45,7.44,6.52-0.8,10.21
		c4.18-0.17,6.91,0.25,6.2,4.66c-0.13,0.8,1.67,1.89,2.54,2.87c2.82,3.2,2.51,5.04-1.45,6.06c-4.1,1.06-8.54,0.86-10.64,5.88
		c-0.68,1.63-2.54,0.77-3.41-0.91c-1.75-3.39-3.72-6.68-5.31-10.14c-1.36-2.97-2.69-2.95-4.67-0.63c-1.89,2.21-2.7,4.69-1.73,7.4
		c1.01,2.83,3.7,3.64,6.34,4.15c1.43,0.28,3.25-0.23,3.74,1.68c0.53,2.04-1.15,2.82-2.54,3.81c-5.03,3.57-5.72,9.94-9.18,14.55
		c-0.98,1.3-1.56,2.88-2.78,4.09c-4.89,4.83-6.11,5.59-10.67,1.12c-4.62-4.54-8.97-7.09-15.3-4.7c0.73,1.71,2.62,1.1,4.09,1.4
		c1.28,0.26,2.24,0.85,2.27,2.23c0.03,1.44-1.17,1.65-2.23,2.22c-6.38,3.44-12.54,0.74-18.45-1.04c-3.77-1.14-4.48-1.09-3.9,2.9
		c1.01,6.99-6.1,13.75-12.98,12.72c-3.07-0.46-4.46-1.51-2.17-4.49c0.61-0.79,1.3-1.61,1.59-2.53c0.42-1.33,2.67-3.2-0.06-3.96
		c-1.13-0.31-4.04-2.17-4.75,2.02c-0.41,2.44-1.06,4.64-0.25,6.99c1.35,3.91-0.85,5.63-4.08,5.54c-7.64-0.22-15.22-0.5-22.63,1.86
		c-1.59,0.51-3.01-0.17-3.8-1.67c-0.95-1.82-0.54-3.54,0.69-5.12c0.9-1.15,2.9-1.02,3.37-3.33c-2.72,0.94-4.96,0.49-7.6,2.93
		c-5.31,4.9,5.19,5.06,0.54,9.1c-6.25-0.99-13.17,2.03-20.4,3.26c-2.08,0.35-3.73,1.25-5.39,2.38c-2.05,1.39-3.81,2.92-6.47,0.22
		c-1.79-1.82-4,1.73-6.41,0.12c0.1,1.84,0.67,2.18,1.34,2.28c1.94,0.3,3.71,0.79,3.5,3.29c-0.2,2.43-1.55,4.23-3.9,4.6
		c-4,0.63-7.8,1.4-10.71,4.59c-0.83,0.91-2.17,0.88-3.17-0.06c-1.47-1.37-1.27-2.91-0.37-4.53c0.52-0.93,1.8-2.03,0.45-3.01
		c-1.09-0.78-2.3,0.11-3.09,0.95c-3.19,3.37-7.18,6.38-9.18,10.37c-1.64,3.27-3.69,4.56-6.64,5.76c-4.38,1.78-7.48,5.5-11.4,8
		c-0.14,0.09-0.34,0.2-0.37,0.33c-2.26,9.81-11.45,6.51-17.47,8.77c-4.59,1.72-6.83,2.14-8.29,7.34c2.35-2.13,4.72-1.84,6.77-0.22
		c1.82,1.43,3.66,3.22,2.09,5.94c-0.88,1.52,0.35,1.86,1.08,2.75c1.5,1.81,4.26,2.08,5.22,4.45c0.12,0.3,0.28,0.59,0.42,0.89
		c1.7-5.94,6.59-0.68,9.6-2.74c4.12-2.83,8.69-1.62,12.15,3c0.54-2.36,1.54-3.9,4.14-3.48c1.78,0.29,3.64-0.04,5.45,0.13
		c2.06,0.19,5.35-1.14,5.9,0.86c0.7,2.56-1.23,5.4-3,7.61c-1.8,2.24-3.52,0.75-5.65-0.11c-4.39-1.77-9.21-1.42-13.68-0.06
		c-2.81,0.85-5.18,2.27-7.53-0.76c-1.41-1.83-2.49,0.71-3.82,0.63L280.29,336.01z"/>
</g>
<path class="st0" d="M860.46,129.16c3.97-0.05,8.59,3.83,8.23,6.65c-0.34,2.71-2.39,4.25-4.9,4.01c-3.25-0.31-6.21-1.49-5.88-5.84
	C858.09,131.7,857.19,128.95,860.46,129.16z"/>
<g>
	<path class="st1" d="M677.51,5.33c-11.1-0.39-21.09,5.8-25.48,15.88c-2.58,5.93-3.2,12.02-0.6,18.11c1.44,3.37,2.99,6.71,4.79,9.9
		c4.69,8.3,10.42,15.89,16.39,23.3c1.19,1.48,2.42,2.93,3.7,4.47c0.33-0.38,0.56-0.62,0.76-0.88c3.75-4.79,7.59-9.5,11.21-14.39
		c4.64-6.27,8.86-12.82,12.03-19.99c1.95-4.41,3.03-8.93,2.29-13.85C700.77,15.5,690.03,5.77,677.51,5.33z M676.23,47.78
		c-8.72-0.02-15.83-7.19-15.82-15.95c0.01-8.79,7.15-15.91,15.95-15.9c8.79,0.01,15.92,7.17,15.9,15.95
		C692.25,40.7,685.09,47.81,676.23,47.78z"/>
	<path class="st1" d="M684.2,1c-1.87-0.45-3.8-0.67-5.7-1c-1.44,0-2.88,0-4.31,0c-0.93,0.12-1.86,0.21-2.78,0.38
		c-11.38,2.08-19.59,8.34-24.3,18.91c-3.04,6.83-3.6,13.87-0.87,21.04c2.23,5.84,5.25,11.25,8.61,16.49
		c5.9,9.21,12.62,17.81,19.73,26.11c0.57,0.66,1.15,1.31,1.76,2.01c0.34-0.38,0.6-0.66,0.85-0.95c5.71-6.58,11.14-13.39,16.16-20.51
		c4.46-6.33,8.62-12.84,11.8-19.93c2.46-5.48,3.67-11.08,2.61-17.15C705.62,14.21,696.21,3.91,684.2,1z M700.32,41.73
		c-3.17,7.17-7.39,13.72-12.03,19.99c-3.61,4.89-7.46,9.6-11.21,14.39c-0.2,0.26-0.43,0.5-0.76,0.88c-1.28-1.54-2.51-2.99-3.7-4.47
		c-5.97-7.41-11.7-15-16.39-23.3c-1.8-3.19-3.36-6.53-4.79-9.9c-2.6-6.09-1.98-12.17,0.6-18.11c4.38-10.08,14.38-16.28,25.48-15.88
		c12.51,0.44,23.25,10.18,25.1,22.56C703.35,32.8,702.27,37.32,700.32,41.73z"/>
</g>
</svg>
