<?xml version="1.0" encoding="utf-8"?>
<!-- Generator: Adobe Illustrator 23.0.1, SVG Export Plug-In . SVG Version: 6.00 Build 0)  -->
<svg version="1.1" id="Layer_1" xmlns="http://www.w3.org/2000/svg" xmlns:xlink="http://www.w3.org/1999/xlink" x="0px" y="0px"
	 viewBox="0 0 451.87 412" style="enable-background:new 0 0 451.87 412;" xml:space="preserve">
<style type="text/css">
	.st0{fill:#1577AD;}
</style>
<g>
	<path class="st0" d="M127.5,25.71c-9.91-9.45-22.26-16.02-35.72-19C51.16-2.29,10.8,23.44,1.8,64.06
		c-0.25,1.12-0.46,2.24-0.66,3.36c-2.55,14.55-0.81,29.27,4.95,42.66c1.57,3.64,3.42,7.19,5.58,10.6c1.36,2.15,3.51,3.63,5.94,4.17
		c0.67,0.15,1.36,0.22,2.06,0.22c3.24-0.01,6.26-1.68,7.98-4.43c22.49-35.94,56.83-64.11,96.71-79.31c3.02-1.15,5.25-3.78,5.89-6.95
		C130.88,31.22,129.84,27.94,127.5,25.71z M21.24,96.62c-0.67-2.23-1.2-4.49-1.58-6.78c-1.2-7.1-1.03-14.44,0.58-21.69
		c1.5-6.8,4.19-13.04,7.78-18.56c12.49-19.22,36.04-29.7,59.7-24.46c5.02,1.11,9.83,2.89,14.32,5.26
		C70.15,45.54,42.21,68.44,21.24,96.62z"/>
	<path class="st0" d="M369.03,207.62c0.48,5.17,0.72,10.38,0.72,15.61c0,93.24-75.86,169.11-169.11,169.11
		S31.53,316.47,31.53,223.22S107.39,54.11,200.64,54.11c17.87,0,35.64,2.86,52.51,8.35c1.42-6.46,12.43-10.22,14.85-16.24
		c-18.73-6.08-47.52-11.78-67.36-11.78c-104.09,0-188.78,84.69-188.78,188.78S96.55,412,200.64,412
		c104.09,0,188.78-84.69,188.78-188.78c0-5.72,1.03-21.88,0.5-27.54c-6.15,0.98-13.75,11.95-20.17,11.95
		C369.51,207.63,369.27,207.62,369.03,207.62z"/>
	<path class="st0" d="M52.69,223.42c0,81.58,66.37,147.95,147.95,147.95S348.59,305,348.59,223.42c0-5.34-0.32-10.67-0.91-15.97
		c-6.74-0.89-13.29-2.37-19.6-4.38c1.08,6.72,1.63,13.53,1.63,20.36c0,71.17-57.9,129.08-129.08,129.08S71.56,294.59,71.56,223.42
		c0-71.2,57.9-129.12,129.08-129.12c16.51,0,32.89,3.2,48.1,9.32c-0.27-3.2-0.41-6.44-0.41-9.71c0-3.49,0.16-6.94,0.47-10.35
		c-15.43-5.33-31.73-8.13-48.16-8.13C119.06,75.42,52.69,141.81,52.69,223.42z"/>
	<path class="st0" d="M210.07,219.5v-91.86c0-5.21-4.23-9.44-9.44-9.44s-9.44,4.23-9.44,9.44v95.77c0,2.5,1,4.9,2.76,6.67
		l44.11,44.11c1.84,1.84,4.26,2.76,6.67,2.76c2.42,0,4.83-0.92,6.67-2.76c3.68-3.68,3.68-9.66,0-13.34L210.07,219.5z"/>
	<path class="st0" d="M345.55,0c-58.72,0-106.32,47.6-106.32,106.32c0,58.72,47.6,106.32,106.32,106.32
		c58.72,0,106.32-47.6,106.32-106.32C451.87,47.6,404.27,0,345.55,0z M344.57,195.68c-49.69,0-89.97-40.28-89.97-89.97
		c0-49.69,40.28-89.97,89.97-89.97c49.69,0,89.97,40.28,89.97,89.97C434.54,155.39,394.26,195.68,344.57,195.68z"/>
	<g>
		<path class="st0" d="M319.23,129.79h-37.72v-8.17l17.38-18.27c4.28-4.88,6.42-8.75,6.42-11.62c0-2.33-0.51-4.1-1.52-5.31
			c-1.02-1.21-2.49-1.82-4.42-1.82c-1.91,0-3.45,0.81-4.64,2.43c-1.19,1.62-1.78,3.64-1.78,6.07h-12.55c0-3.32,0.83-6.38,2.49-9.19
			c1.66-2.81,3.96-5.01,6.91-6.59c2.95-1.58,6.24-2.38,9.88-2.38c5.84,0,10.34,1.35,13.5,4.05c3.16,2.7,4.73,6.57,4.73,11.62
			c0,2.13-0.4,4.2-1.19,6.22c-0.79,2.02-2.02,4.13-3.69,6.35c-1.67,2.22-4.36,5.18-8.08,8.89l-6.98,8.06h21.28V129.79z"/>
		<path class="st0" d="M354.79,108.67h5.5v9.65h-5.5v11.47h-12.51v-11.47h-20.9l-0.74-7.65l21.65-34.83v-0.11h12.51V108.67z
			 M332.54,108.67h9.73V92.03l-0.78,1.26L332.54,108.67z"/>
		<path class="st0" d="M386.87,93.93c2.67-3.37,6.09-5.05,10.25-5.05c4.43,0,7.77,1.31,10.02,3.94c2.25,2.62,3.4,6.5,3.45,11.62
			v25.36h-12.55v-25.06c0-2.13-0.43-3.69-1.3-4.7c-0.87-1-2.34-1.5-4.42-1.5c-2.57,0-4.39,0.82-5.46,2.45v28.81h-12.51V72.76h12.51
			V93.93z"/>
	</g>
</g>
</svg>
