<?xml version="1.0" encoding="utf-8"?>
<!-- Generator: Adobe Illustrator 23.0.1, SVG Export Plug-In . SVG Version: 6.00 Build 0)  -->
<svg version="1.1" id="Layer_1" xmlns="http://www.w3.org/2000/svg" xmlns:xlink="http://www.w3.org/1999/xlink" x="0px" y="0px"
	 viewBox="0 0 412.48 415.94" style="enable-background:new 0 0 412.48 415.94;" xml:space="preserve">
<style type="text/css">
	.st0{fill:none;}
	.st1{fill:#1577AD;}
</style>
<path class="st0" d="M14.1,175.48c7.28,0,14.24,0,21.28,0c0-21.65,0-43,0-64.45c-7.23,0-14.08,0-21.28,0
	C14.1,132.81,14.1,154.17,14.1,175.48z"/>
<path class="st1" d="M373.94,313.12c-0.02-6.07-2.81-8.79-8.83-8.87c-4.92-0.06-9.84-0.01-14.83-0.01
	c0-61.87-0.35-204.16-0.35-205.74c0.01-21.51,0.04-43.03-0.01-64.54c-0.01-3.19-0.01-6.47-0.7-9.56
	c-3.34-15.08-15.59-24.36-32.02-24.37C243.51,0,169.82,0.02,96.13,0C75.33,0,62.5,12.82,62.52,33.6
	c0.02,21.67,0.02,43.35,0.02,65.02c0,0.45-0.02,10.72-0.05,26.72c0.4,0,0.78,0,1.19,0v14.38c-0.41,0-0.81,0-1.21,0
	c-0.08,47.27-0.21,123.58-0.21,164.52c-4.88,0-9.49-0.02-14.11,0.01c-7.01,0.04-9.61,2.58-9.62,9.54
	c-0.03,14.45-0.02,28.9-0.01,43.35c0.01,8.25,2.33,10.58,10.56,10.6c9.59,0.02,19.18,0.01,29.33,0.01c0,4.44-0.59,8.51,0.13,12.34
	c1.2,6.36,2.12,13.18,5.15,18.71c7.67,14,24.6,20.11,40.4,15.77c15.36-4.21,25.41-17.29,25.85-33.74c0.12-4.25,0.02-8.5,0.02-12.7
	c37.99,0,75.13,0,112.03,0c0.57,7.41,0.27,14.63,1.83,21.41c3.95,17.16,20.32,28,38.13,26.1c18.51-1.97,31.39-15.66,32.11-34.24
	c0.17-4.42,0.03-8.86,0.03-13.65c10.78,0,20.87,0.07,30.95-0.03c6.08-0.06,8.88-2.82,8.91-8.83
	C374.01,343.63,374,328.38,373.94,313.12z M77.98,32.22c0-10.49,6.23-16.75,16.8-16.75c74.16-0.03,148.31-0.03,222.47-0.01
	c11.04,0,17.23,6.01,17.24,16.8c0.03,89.41,0.02,178.81,0.01,268.22c0,1.09-0.1,2.17-0.17,3.51c-26.67,0-53.08,0-80.05,0
	c-0.09-1.87-0.26-3.71-0.26-5.55c-0.02-15.73,0-31.46-0.02-47.19c-0.01-8.73-2.16-10.99-10.67-11c-24.88-0.03-49.76-0.03-74.64,0.01
	c-7.87,0.01-10.16,2.41-10.18,10.51c-0.03,15.73-0.01,31.46-0.01,47.19c0,1.9,0,3.8,0,6.14c-27.13,0-53.42,0-80.32,0
	c-0.07-1.57-0.2-3.09-0.2-4.61C77.96,210.39,77.96,121.3,77.98,32.22z M238.36,256.09c0,16.11,0,31.77,0,47.8
	c-21.39,0-42.6,0-64.15,0c0-15.77,0-31.56,0-47.8C195.49,256.09,216.68,256.09,238.36,256.09z M134.1,383.78
	c-1.07,9.7-9.02,16.27-19.27,16.58c-10.38,0.31-19-6.01-20.39-15.8c-0.75-5.29-0.13-10.77-0.13-16.5c13.16,0,26.37,0,39.88,0
	C134.2,373.6,134.65,378.74,134.1,383.78z M316.75,388.56c-2.59,8.54-11.97,12.93-21.42,11.64c-9.32-1.27-16.13-7.7-17.04-16.82
	c-0.5-5.03-0.09-10.15-0.09-15.44c13.42,0,26.51,0,41.03,0C318.47,374.96,318.71,382.09,316.75,388.56z M358.38,351.91
	c-101.26,0-202.43,0-304.02,0c0-10.42,0-21.05,0-31.97c101.14,0,202.33,0,304.02,0C358.38,330.69,358.38,341.1,358.38,351.91z"/>
<path class="st1" d="M104.97,151.59c67.56,0.02,135.11,0.03,202.67,0.02c7.85,0,10.37-2.55,10.37-10.38
	c0.01-32.57,0.01-65.15-0.01-97.72c0-9.32-2.04-11.37-11.23-11.37c-33.38-0.01-66.75,0-100.13-0.01c-34.02,0-68.04-0.01-102.06,0.01
	c-7.61,0-10.1,2.54-10.1,10.07c0,32.9-0.01,65.79,0,98.69C94.49,149.21,96.79,151.59,104.97,151.59z M110.2,47.95
	c63.94,0,127.86,0,192.22,0c0,29.42,0,58.44,0,87.84c-64.04,0-127.98,0-192.22,0C110.2,106.6,110.2,77.47,110.2,47.95z"/>
<path class="st1" d="M123.6,250.29c15.79-0.14,28.83-13.26,28.83-29c0.01-16.02-13.07-29.03-29.15-29.01
	c-16.15,0.02-29.05,12.98-28.98,29.11C94.37,237.41,107.57,250.43,123.6,250.29z M123.38,206.4c8.39,0.02,15.11,6.87,14.91,15.21
	c-0.19,8.12-7.1,14.71-15.21,14.52c-8.22-0.2-14.75-6.89-14.66-15.05C108.5,212.88,115.13,206.38,123.38,206.4z"/>
<path class="st1" d="M290.23,192.26c-16.14,0.02-29.15,12.92-29.22,28.97c-0.06,15.9,13.28,29.16,29.2,29.04
	c16.13-0.12,28.99-13.12,28.93-29.25C319.08,205.18,306.07,192.25,290.23,192.26z M290.27,236.14c-8.3,0.1-15.23-6.81-15.13-15.08
	c0.1-8.16,6.8-14.71,15.02-14.66c8.29,0.05,14.83,6.55,14.87,14.78C305.06,229.33,298.45,236.04,290.27,236.14z"/>
<path class="st1" d="M49.53,125.34c0-7.09,0.11-13.82-0.04-20.55c-0.11-5.15-2.68-7.59-7.84-7.62c-11.18-0.07-22.37-0.07-33.55,0
	c-5.59,0.03-8.07,2.57-8.07,8.24c-0.03,25.24-0.03,50.47-0.01,75.71c0.01,5.97,2.37,8.38,8.3,8.42c10.75,0.07,21.51,0.07,32.26,0.02
	c6.77-0.03,8.93-2.25,8.96-9.13c0.05-12.05,0.01-24.09,0.03-36.14c0-1.5,0.18-3.01,0.28-4.58c4.41,0,8.46,0,12.62,0
	c0.01-5.17,0.02-9.99,0.03-14.38C57.98,125.34,53.85,125.34,49.53,125.34z M35.38,175.48c-7.04,0-14,0-21.28,0
	c0-21.32,0-42.68,0-64.45c7.2,0,14.05,0,21.28,0C35.38,132.48,35.38,153.83,35.38,175.48z"/>
<path class="st1" d="M63.68,125.34c-0.41,0-0.79,0-1.19,0c-0.01,4.39-0.02,9.22-0.03,14.38c0.41,0,0.81,0,1.21,0V125.34z"/>
<path class="st1" d="M362.94,144.88c0,11.76-0.02,23.52,0.01,35.28c0.02,7.22,2.06,9.36,9.1,9.4c10.61,0.05,21.22,0.05,31.83-0.01
	c6.27-0.04,8.58-2.37,8.58-8.57c0.02-25.09,0.02-50.19,0-75.28c-0.01-6.13-2.42-8.51-8.65-8.54c-10.18-0.04-20.36-0.01-30.54-0.01
	c-8.51,0-10.31,1.81-10.32,10.36c-0.01,5.96,0,11.91,0,17.82c-5.06,0-9.49,0-14.14,0v14.36c4.69,0,9.1,0,14.14,0
	C362.94,141.76,362.94,143.32,362.94,144.88z M377.01,111.23c7.11,0,14.15,0,21.45,0c0,21.31,0,42.57,0,64.19
	c-7.06,0-14.1,0-21.45,0C377.01,154.07,377.01,132.81,377.01,111.23z"/>
</svg>
