<?xml version="1.0" encoding="utf-8"?>
<!-- Generator: Adobe Illustrator 23.0.1, SVG Export Plug-In . SVG Version: 6.00 Build 0)  -->
<svg version="1.1" id="Layer_1" xmlns="http://www.w3.org/2000/svg" xmlns:xlink="http://www.w3.org/1999/xlink" x="0px" y="0px"
	 viewBox="0 0 2500 780" style="enable-background:new 0 0 2500 780;" xml:space="preserve">
<style type="text/css">
	.st0{fill:#FFFFFF;}
</style>
<path class="st0" d="M1317.56,195.98c0,28.11-22.65,50.75-50.76,50.75c-28.11,0-50.75-22.64-50.75-50.75s21.86-50.75,50.75-50.75
	C1295.71,146.01,1317.56,168.66,1317.56,195.98z M1108.31,298.27v12.5c0,0-24.2-31.25-75.73-31.25
	c-85.1,0-151.47,64.81-151.47,154.59c0,89.01,65.6,154.59,151.47,154.59c52.31,0,75.73-32.01,75.73-32.01v13.27
	c0,6.25,4.7,10.92,10.94,10.92h63.23V287.3h-63.23C1113,287.32,1108.31,292.8,1108.31,298.27L1108.31,298.27z M1108.31,486.42
	c-11.7,17.18-35.13,32.02-63.23,32.02c-49.97,0-88.23-31.23-88.23-84.33c0-53.09,38.27-84.32,88.23-84.32
	c27.33,0,52.31,15.62,63.23,32.01V486.42z M1229.33,287.32h74.95V580.9h-74.95V287.32L1229.33,287.32z M2348.96,279.51
	c-51.53,0-75.74,31.25-75.74,31.25V146.01h-74.95V580.9h63.25c6.25,0,10.92-5.47,10.92-10.94V556.7c0,0,24.21,32.01,75.73,32.01
	c85.11,0,151.47-65.57,151.47-154.58S2433.28,279.51,2348.96,279.51L2348.96,279.51z M2336.46,517.65
	c-28.9,0-51.53-14.82-63.25-32.01V381.01c11.72-15.62,36.7-32.01,63.25-32.01c49.97,0,88.22,31.23,88.22,84.32
	S2386.44,517.65,2336.46,517.65z M2159.24,406.79v174.89h-74.96V415.37c0-48.4-15.62-67.93-57.75-67.93
	c-22.64,0-46.07,11.72-60.92,28.9v204.57h-74.93V287.33h59.32c6.25,0,10.94,5.47,10.94,10.94v12.5
	c21.86-22.65,50.75-31.25,79.63-31.25c32.8,0,60.13,9.38,81.99,28.12C2149.07,329.5,2159.24,357.6,2159.24,406.79L2159.24,406.79z
	 M1708.72,279.51c-51.52,0-75.73,31.25-75.73,31.25V146.01h-74.95V580.9h63.23c6.25,0,10.94-5.47,10.94-10.94V556.7
	c0,0,24.21,32.01,75.73,32.01c85.11,0,151.47-65.57,151.47-154.58C1860.19,345.11,1793.83,279.51,1708.72,279.51L1708.72,279.51z
	 M1696.22,517.65c-28.88,0-51.52-14.82-63.23-32.01V381.01c11.72-15.62,36.7-32.01,63.23-32.01c49.98,0,88.23,31.23,88.23,84.32
	S1746.2,517.65,1696.22,517.65z M1493.23,279.51c22.64,0,34.35,3.92,34.35,3.92v69.48c0,0-62.46-21.08-101.49,23.43v205.34h-74.96
	V287.32h63.25c6.25,0,10.92,5.47,10.92,10.94v12.5C1439.36,294.35,1469.82,279.51,1493.23,279.51L1493.23,279.51z M714.81,554.35
	c-3.9-9.37-7.81-19.52-11.71-28.11c-6.26-14.05-12.5-27.33-17.96-39.82l-0.78-0.78c-53.88-117.12-111.65-235.79-172.56-352.9
	l-2.34-4.7c-6.41-12.15-12.65-24.38-18.73-36.7c-7.82-14.06-15.62-28.88-28.11-42.95c-24.98-31.23-60.9-48.41-99.15-48.41
	c-39.05,0-74.18,17.18-99.93,46.85c-11.72,14.05-20.31,28.88-28.11,42.95c-6.09,12.31-12.34,24.54-18.73,36.7l-2.35,4.7
	C154.25,248.28,95.69,366.96,41.82,484.07l-0.79,1.55c-5.46,12.51-11.72,25.78-17.96,39.82c-3.9,8.6-7.8,17.96-11.7,28.11
	C1.21,582.44-1.91,609.77,2,637.89c8.59,58.56,47.62,107.73,101.5,129.61c20.3,8.6,41.39,12.5,63.24,12.5
	c6.25,0,14.05-0.78,20.3-1.57c25.77-3.12,52.31-11.7,78.08-26.53c32.01-17.96,62.46-43.72,96.81-81.2
	c34.35,37.48,65.58,63.23,96.81,81.2c25.78,14.84,52.31,23.42,78.08,26.53c6.25,0.8,14.06,1.57,20.31,1.57
	c21.86,0,43.72-3.9,63.23-12.5c54.66-21.88,92.91-71.83,101.51-129.61C728.08,610.56,724.96,583.25,714.81,554.35L714.81,554.35z
	 M362.7,594.95c-42.17-53.09-69.5-103.06-78.86-145.21c-3.9-17.96-4.69-33.58-2.34-47.63c1.55-12.5,6.25-23.43,12.5-32.8
	c14.84-21.07,39.82-34.35,68.71-34.35c28.9,0,54.66,12.5,68.72,34.35c6.25,9.37,10.93,20.31,12.5,32.8
	c2.33,14.06,1.55,30.45-2.35,47.63C432.18,491.11,404.85,541.08,362.7,594.95z M674.21,631.65c-5.46,40.6-32.79,75.74-71.04,91.36
	c-18.74,7.8-39.05,10.15-59.33,7.8c-19.52-2.35-39.05-8.6-59.33-20.3c-28.11-15.63-56.21-39.82-89.01-75.74
	c51.53-63.23,82.76-121.02,94.47-172.54c5.47-24.21,6.26-46.07,3.9-66.38c-3.11-19.52-10.15-37.48-21.08-53.09
	c-24.22-35.15-64.82-55.43-110.09-55.43s-85.88,21.08-110.08,55.43c-10.93,15.62-17.96,33.58-21.08,53.09
	c-3.12,20.31-2.35,42.95,3.9,66.38c11.71,51.52,43.72,110.08,94.46,173.32c-32.01,35.92-60.9,60.13-89.01,75.74
	c-20.3,11.72-39.81,17.96-59.33,20.3c-21.08,2.35-41.39-0.78-59.34-7.8c-38.25-15.62-65.58-50.76-71.04-91.36
	c-2.34-19.52-0.79-39.03,7.03-60.89c2.33-7.82,6.25-15.62,10.15-24.98c5.47-12.5,11.7-25.78,17.96-39.05l0.79-1.55
	c53.87-116.34,111.64-235.02,171.76-350.56l2.34-4.7c6.26-11.7,12.5-24.2,18.74-35.91c6.25-12.5,13.27-24.21,21.86-34.37
	c16.4-18.72,38.25-28.88,62.46-28.88s46.07,10.16,62.46,28.88c8.6,10.18,15.62,21.89,21.86,34.37c6.26,11.72,12.5,24.21,18.74,35.91
	l2.35,4.7c59.2,116.03,116.21,233.16,170.99,351.34v0.78c6.26,12.51,11.72,26.55,17.96,39.06c3.9,9.35,7.81,17.15,10.15,24.97
	C675,591.82,677.34,611.35,674.21,631.65L674.21,631.65z"/>
</svg>
