<?xml version="1.0" encoding="utf-8"?>
<!-- Generator: Adobe Illustrator 23.0.1, SVG Export Plug-In . SVG Version: 6.00 Build 0)  -->
<svg version="1.1" id="Layer_1" xmlns="http://www.w3.org/2000/svg" xmlns:xlink="http://www.w3.org/1999/xlink" x="0px" y="0px"
	 viewBox="0 0 2500 1563" style="enable-background:new 0 0 2500 1563;" xml:space="preserve">
<style type="text/css">
	.st0{fill:#FFFFFF;}
</style>
<path class="st0" d="M625.73,624.33c-173.27,0-313.35,140.08-313.35,312.87s140.08,312.87,312.87,312.87
	s312.87-140.08,312.87-312.87C938.6,764.42,798.52,624.33,625.73,624.33L625.73,624.33z M625.73,1161.23
	c-123.49,0-224.03-100.06-224.03-224.03s100.06-224.03,224.03-224.03S849.28,813.71,849.28,937.2S749.22,1161.23,625.73,1161.23z"/>
<circle class="st0" cx="626.71" cy="936.71" r="155.7"/>
<path class="st0" d="M1875.24,624.33c-172.78,0-312.87,140.08-312.87,312.87s140.08,312.87,312.87,312.87
	s312.87-140.08,312.87-312.87C2188.11,764.42,2048.03,624.33,1875.24,624.33z M1875.24,1161.23
	c-123.49,0-224.03-100.06-224.03-224.03s100.06-224.03,224.03-224.03s223.55,100.55,223.55,224.03S1998.73,1161.23,1875.24,1161.23z
	"/>
<circle class="st0" cx="1876.22" cy="936.71" r="155.7"/>
<path class="st0" d="M2315.5,494.01l184.01-182.55h-372.9c-208.9-169.86-555.94-311.4-877.59-311.4
	c-322.14,0-666.24,141.55-875.15,311.4H0l184.01,182.55C70.29,607.25,0,763.93,0,937.2c0,345.57,280.16,625.73,625.73,625.73
	c158.63,0,303.59-59.06,413.9-156.68l211.83,155.7l209.39-152.28l-2.44-5.86c110.8,98.59,256.25,158.63,416.34,158.63
	c345.57,0,625.73-280.16,625.73-625.73C2500,763.93,2429.23,607.25,2315.5,494.01L2315.5,494.01z M1796.17,316.35
	c-296.27,37.09-528.6,281.14-546.17,583.27C1231.94,597,999.12,352.47,701.87,316.35c149.36-107.38,339.71-160.09,547.15-160.09
	S1646.82,208.97,1796.17,316.35z M625.73,1406.74c-259.66,0-469.54-210.37-469.54-469.54s210.37-469.54,469.54-469.54
	s469.54,210.37,469.54,469.54C1094.79,1196.38,884.91,1406.74,625.73,1406.74z M1875.24,1406.74
	c-259.18,0-469.54-210.37-469.54-469.54s210.37-469.54,469.54-469.54s469.54,210.37,469.54,469.54
	C2344.3,1196.38,2134.42,1406.74,1875.24,1406.74z"/>
</svg>
