<?xml version="1.0" encoding="utf-8"?>
<!-- Generator: Adobe Illustrator 23.0.1, SVG Export Plug-In . SVG Version: 6.00 Build 0)  -->
<svg version="1.1" id="Layer_1" xmlns="http://www.w3.org/2000/svg" xmlns:xlink="http://www.w3.org/1999/xlink" x="0px" y="0px"
	 viewBox="0 0 154 50" style="enable-background:new 0 0 154 50;" xml:space="preserve">
<style type="text/css">
	.st0{fill:#FFFFFF;}
</style>
<path class="st0" d="M10.6,28.69L2.68,4.43h3.38l3.78,11.95c1.05,3.28,1.95,6.23,2.59,9.07h0.07c0.68-2.81,1.69-5.87,2.77-9.03
	l4.1-11.99h3.35l-8.67,24.26C14.05,28.69,10.6,28.69,10.6,28.69z"/>
<path class="st0" d="M25.35,4.75c1.58-0.32,3.85-0.51,6.01-0.51c3.35,0,5.51,0.61,7.02,1.98c1.22,1.08,1.91,2.74,1.91,4.61
	c0,3.2-2.02,5.33-4.57,6.19v0.11c1.87,0.65,2.99,2.38,3.56,4.9c0.79,3.38,1.37,5.72,1.87,6.66h-3.24c-0.39-0.72-0.94-2.77-1.62-5.79
	c-0.72-3.35-2.01-4.61-4.86-4.72h-2.95v10.51h-3.13C25.35,28.69,25.35,4.75,25.35,4.75z M28.49,15.8h3.2c3.35,0,5.47-1.84,5.47-4.61
	c0-3.13-2.27-4.5-5.58-4.54c-1.51,0-2.59,0.14-3.09,0.29V15.8z"/>
<path class="st0" d="M44.72,4.75c1.37-0.29,3.53-0.5,5.72-0.5c3.13,0,5.15,0.54,6.66,1.76c1.26,0.94,2.01,2.38,2.01,4.28
	c0,2.34-1.55,4.39-4.1,5.33v0.07c2.3,0.58,5,2.48,5,6.08c0,2.09-0.83,3.67-2.05,4.86c-1.69,1.55-4.43,2.27-8.39,2.27
	c-2.16,0-3.82-0.15-4.86-0.29L44.72,4.75L44.72,4.75z M47.85,14.68h2.85c3.31,0,5.26-1.73,5.26-4.07c0-2.84-2.16-3.96-5.33-3.96
	c-1.44,0-2.27,0.11-2.77,0.21L47.85,14.68L47.85,14.68z M47.85,26.31c0.61,0.11,1.51,0.14,2.63,0.14c3.24,0,6.23-1.19,6.23-4.71
	c0-3.31-2.84-4.68-6.26-4.68h-2.59L47.85,26.31L47.85,26.31z"/>
<path class="st0" d="M84.96,16.3c0,8.35-5.08,12.78-11.27,12.78c-6.41,0-10.91-4.97-10.91-12.31c0-7.7,4.79-12.74,11.27-12.74
	C80.67,4.03,84.96,9.11,84.96,16.3 M66.13,16.7c0,5.18,2.81,9.83,7.74,9.83c4.97,0,7.78-4.57,7.78-10.08c0-4.82-2.52-9.86-7.74-9.86
	C68.72,6.59,66.13,11.37,66.13,16.7"/>
<path class="st0" d="M87.94,3.29c1.54,0,2.74,1.2,2.74,2.69c0,1.53-1.2,2.71-2.75,2.71c-1.54,0-2.77-1.18-2.77-2.71
	c0-1.49,1.23-2.69,2.77-2.69H87.94z M87.91,3.83c-1.18,0-2.07,0.97-2.07,2.15c0,1.2,0.88,2.15,2.1,2.15
	c1.18,0.01,2.05-0.95,2.05-2.15C89.99,4.8,89.12,3.83,87.91,3.83L87.91,3.83z M87.5,7.37h-0.62V4.7c0.25-0.05,0.59-0.1,1.03-0.1
	c0.51,0,0.74,0.08,0.94,0.21c0.15,0.12,0.26,0.33,0.26,0.58c0,0.31-0.23,0.54-0.56,0.64v0.03c0.26,0.08,0.41,0.3,0.49,0.66
	c0.08,0.41,0.13,0.57,0.2,0.66h-0.67c-0.08-0.1-0.13-0.33-0.21-0.64c-0.04-0.3-0.21-0.43-0.56-0.43h-0.3V7.37z M87.51,5.86h0.29
	c0.34,0,0.63-0.11,0.63-0.39c0-0.24-0.18-0.41-0.57-0.41c-0.17,0-0.28,0.02-0.35,0.03V5.86z"/>
<path class="st0" d="M4.66,36.08c0.47-0.1,1.04-0.16,1.73-0.16c0.96,0,1.69,0.24,2.13,0.68c0.38,0.37,0.62,0.9,0.62,1.58
	c0,0.7-0.2,1.21-0.56,1.61c-0.52,0.6-1.39,0.91-2.38,0.91c-0.36,0-0.7-0.01-0.98-0.1v3.45H4.66V36.08z M5.23,40.1
	c0.29,0.08,0.63,0.12,1.03,0.12c1.44,0,2.31-0.71,2.31-1.99c0-1.27-0.92-1.83-2.21-1.83c-0.53,0-0.92,0.05-1.14,0.1v3.6H5.23z"/>
<path class="st0" d="M13.89,42.69c0,0.46,0.02,0.92,0.08,1.37h-0.51l-0.08-0.83h-0.04c-0.28,0.44-0.91,0.96-1.83,0.96
	c-1.15,0-1.69-0.82-1.69-1.58c0-1.33,1.18-2.13,3.51-2.11v-0.14c0-0.58-0.11-1.71-1.47-1.7c-0.5,0-1.03,0.13-1.44,0.43l-0.18-0.42
	c0.52-0.35,1.16-0.49,1.68-0.49c1.67,0,1.98,1.25,1.98,2.28L13.89,42.69L13.89,42.69z M13.33,40.99c-1.26-0.04-2.91,0.16-2.91,1.54
	c0,0.83,0.55,1.2,1.15,1.2c0.96,0,1.5-0.59,1.7-1.15c0.04-0.12,0.06-0.24,0.06-0.35V40.99z"/>
<path class="st0" d="M15.76,40.03c0-0.58-0.02-1.18-0.05-1.73h0.53l0.02,1.16h0.02c0.25-0.72,0.85-1.3,1.64-1.3
	c0.07,0,0.16,0.01,0.23,0.02v0.55c-0.08-0.02-0.17-0.02-0.28-0.02c-0.79,0-1.35,0.68-1.51,1.61c-0.02,0.17-0.05,0.36-0.05,0.55v3.18
	h-0.56v-4.02H15.76z"/>
<path class="st0" d="M20.41,37.03v1.27h1.64v0.46h-1.64v3.74c0,0.73,0.23,1.2,0.84,1.2c0.3,0,0.52-0.05,0.66-0.1l0.07,0.44
	c-0.19,0.08-0.46,0.14-0.8,0.14c-0.42,0-0.77-0.14-0.98-0.42c-0.26-0.3-0.36-0.78-0.36-1.37v-3.65h-0.97v-0.46h0.97v-1.06
	L20.41,37.03z"/>
<path class="st0" d="M30.87,41.12c0,2.16-1.47,3.07-2.76,3.07c-1.49,0-2.64-1.16-2.64-2.96c0-1.98,1.3-3.06,2.72-3.06
	C29.79,38.17,30.87,39.37,30.87,41.12 M26.05,41.19c0,1.44,0.92,2.52,2.1,2.52c1.2,0,2.15-1.08,2.15-2.55c0-1.05-0.6-2.52-2.11-2.52
	C26.72,38.65,26.05,39.97,26.05,41.19"/>
<path class="st0" d="M32.37,44.06v-5.3h-0.83v-0.46h0.83v-0.31c0-0.89,0.17-1.61,0.64-2.07c0.35-0.35,0.83-0.5,1.27-0.5
	c0.37,0,0.7,0.1,0.86,0.19l-0.18,0.46c-0.16-0.08-0.38-0.17-0.73-0.17c-1.07,0-1.29,0.98-1.29,2.09v0.32h1.55v0.46h-1.55v5.3
	L32.37,44.06L32.37,44.06z"/>
<path class="st0" d="M38.9,37.03v1.27h1.64v0.46H38.9v3.74c0,0.73,0.23,1.2,0.84,1.2c0.3,0,0.52-0.05,0.66-0.1l0.07,0.44
	c-0.19,0.08-0.46,0.14-0.8,0.14c-0.42,0-0.77-0.14-0.98-0.42c-0.26-0.3-0.36-0.78-0.36-1.37v-3.65h-0.97v-0.46h0.97v-1.06
	L38.9,37.03z"/>
<path class="st0" d="M41.81,35.55h0.56v3.79h0.02c0.17-0.32,0.44-0.64,0.79-0.84c0.32-0.2,0.72-0.32,1.16-0.32
	c0.54,0,1.99,0.28,1.99,2.41v3.48h-0.55v-3.41c0-1.04-0.41-1.99-1.58-1.99c-0.82,0-1.5,0.59-1.74,1.31
	c-0.06,0.17-0.08,0.34-0.08,0.56v3.53h-0.56L41.81,35.55L41.81,35.55z"/>
<path class="st0" d="M48.33,41.12c0,1.85,1.01,2.57,2.19,2.57c0.84,0,1.27-0.17,1.6-0.32l0.14,0.46c-0.22,0.12-0.8,0.37-1.81,0.37
	c-1.66,0-2.69-1.21-2.69-2.9c0-1.92,1.1-3.12,2.59-3.12c1.88,0,2.24,1.78,2.24,2.6c0,0.16,0,0.25-0.02,0.35L48.33,41.12L48.33,41.12
	z M52,40.67c0.01-0.8-0.32-2.03-1.71-2.03c-1.27,0-1.82,1.14-1.92,2.03H52z"/>
<polygon class="st0" points="58.05,35.99 58.05,39.22 61.47,39.22 61.47,35.99 62.94,35.99 62.94,44.06 61.47,44.06 61.47,40.51 
	58.05,40.51 58.05,44.06 56.57,44.06 56.57,35.99 "/>
<path class="st0" d="M70.13,41.1c0,2.15-1.51,3.11-3,3.11c-1.65,0-2.93-1.14-2.93-3.01c0-1.92,1.26-3.09,3.02-3.09
	C68.97,38.1,70.13,39.31,70.13,41.1 M65.73,41.15c0,1.13,0.55,1.98,1.45,1.98c0.84,0,1.43-0.83,1.43-2c0-0.91-0.41-1.96-1.42-1.96
	C66.15,39.17,65.73,40.17,65.73,41.15"/>
<path class="st0" d="M71.35,39.97c0-0.67-0.01-1.23-0.05-1.74h1.27l0.06,0.86h0.04c0.29-0.46,0.82-1,1.8-1
	c0.77,0,1.37,0.43,1.62,1.08h0.02c0.2-0.32,0.44-0.56,0.72-0.73c0.32-0.23,0.7-0.35,1.17-0.35c0.97,0,1.96,0.66,1.96,2.53v3.44
	h-1.44v-3.23c0-0.97-0.34-1.55-1.04-1.55c-0.5,0-0.88,0.36-1.03,0.78c-0.04,0.14-0.07,0.32-0.07,0.49v3.5h-1.44v-3.38
	c0-0.82-0.32-1.39-1.01-1.39c-0.55,0-0.92,0.43-1.06,0.84c-0.06,0.14-0.08,0.31-0.08,0.48v3.45h-1.44L71.35,39.97L71.35,39.97z"/>
<path class="st0" d="M82.57,41.56c0.04,1.05,0.86,1.51,1.8,1.51c0.68,0,1.18-0.1,1.62-0.26l0.21,1.02c-0.5,0.2-1.2,0.36-2.04,0.36
	c-1.9,0-3.01-1.16-3.01-2.95c0-1.62,0.98-3.14,2.85-3.14c1.89,0,2.52,1.56,2.52,2.84c0,0.28-0.02,0.49-0.05,0.62H82.57z
	 M85.13,40.53c0.01-0.54-0.23-1.43-1.21-1.43c-0.91,0-1.29,0.83-1.36,1.43H85.13z"/>
<path class="st0" d="M89.39,41.78l-0.7,2.29h-1.51l2.59-8.08h1.88l2.63,8.08H92.7l-0.73-2.29C91.97,41.78,89.39,41.78,89.39,41.78z
	 M91.71,40.65l-0.64-1.99c-0.16-0.49-0.29-1.04-0.41-1.51h-0.02c-0.12,0.47-0.24,1.03-0.38,1.51l-0.62,1.99H91.71z"/>
<path class="st0" d="M95.91,38.22l0.61,2.65c0.13,0.62,0.26,1.26,0.37,1.89h0.02c0.12-0.64,0.31-1.28,0.48-1.88l0.76-2.66h1.2
	l0.73,2.59c0.18,0.68,0.34,1.32,0.47,1.96h0.02c0.1-0.64,0.23-1.27,0.38-1.96l0.65-2.59h1.45l-1.83,5.84h-1.37l-0.7-2.37
	c-0.18-0.61-0.31-1.16-0.44-1.87h-0.02c-0.12,0.72-0.28,1.29-0.45,1.87l-0.74,2.37h-1.38l-1.73-5.84H95.91z"/>
<path class="st0" d="M107.22,44.06l-0.1-0.65h-0.04c-0.36,0.46-0.97,0.78-1.73,0.78c-1.17,0-1.83-0.85-1.83-1.74
	c0-1.48,1.31-2.22,3.47-2.21v-0.1c0-0.38-0.16-1.02-1.19-1.02c-0.58,0-1.18,0.18-1.57,0.43l-0.29-0.96
	c0.43-0.26,1.19-0.52,2.11-0.52c1.87,0,2.41,1.19,2.41,2.46v2.11c0,0.53,0.02,1.04,0.08,1.4h-1.32V44.06z M107.03,41.22
	c-1.04-0.02-2.04,0.2-2.04,1.09c0,0.58,0.37,0.84,0.84,0.84c0.59,0,1.02-0.38,1.15-0.8c0.04-0.11,0.05-0.23,0.05-0.32V41.22z"/>
<path class="st0" d="M110.84,38.22l1.06,3.13c0.12,0.36,0.24,0.8,0.32,1.14h0.04c0.09-0.34,0.2-0.77,0.31-1.15l0.91-3.12h1.58
	l-1.46,3.98c-0.8,2.18-1.34,3.16-2.04,3.75c-0.58,0.52-1.18,0.71-1.55,0.76l-0.34-1.25c0.25-0.06,0.56-0.19,0.86-0.41
	c0.28-0.18,0.6-0.53,0.8-0.92c0.06-0.11,0.1-0.19,0.1-0.26c0-0.06-0.01-0.14-0.08-0.29l-2.13-5.36H110.84z"/>
<polygon class="st0" points="118.46,35.99 123.12,35.99 123.12,37.19 119.93,37.19 119.93,39.42 122.91,39.42 122.91,40.63 
	119.93,40.63 119.93,44.06 118.46,44.06 "/>
<path class="st0" d="M127.29,44.06l-0.1-0.65h-0.04c-0.36,0.46-0.97,0.78-1.73,0.78c-1.17,0-1.83-0.85-1.83-1.74
	c0-1.48,1.31-2.22,3.47-2.21v-0.1c0-0.38-0.16-1.02-1.19-1.02c-0.58,0-1.17,0.18-1.57,0.43l-0.29-0.96
	c0.43-0.26,1.19-0.52,2.11-0.52c1.87,0,2.41,1.19,2.41,2.46v2.11c0,0.53,0.02,1.04,0.08,1.4h-1.32V44.06z M127.1,41.22
	c-1.04-0.02-2.04,0.2-2.04,1.09c0,0.58,0.37,0.84,0.84,0.84c0.59,0,1.02-0.38,1.15-0.8c0.04-0.11,0.05-0.23,0.05-0.32V41.22z"/>
<path class="st0" d="M130.1,39.97c0-0.67-0.01-1.23-0.05-1.74h1.27l0.06,0.86h0.04c0.29-0.46,0.82-1,1.8-1
	c0.77,0,1.37,0.43,1.62,1.08h0.02c0.2-0.32,0.44-0.56,0.72-0.73c0.32-0.23,0.7-0.35,1.17-0.35c0.97,0,1.95,0.66,1.95,2.53v3.44
	h-1.44v-3.23c0-0.97-0.34-1.55-1.04-1.55c-0.5,0-0.88,0.36-1.03,0.78c-0.04,0.14-0.07,0.32-0.07,0.49v3.5h-1.44v-3.38
	c0-0.82-0.32-1.39-1.01-1.39c-0.55,0-0.92,0.43-1.06,0.84c-0.06,0.14-0.08,0.31-0.08,0.48v3.45h-1.44L130.1,39.97L130.1,39.97z"/>
<path class="st0" d="M141.85,36.6c0,0.44-0.32,0.79-0.84,0.79c-0.49,0-0.82-0.35-0.82-0.79c0-0.46,0.34-0.8,0.83-0.8
	C141.52,35.78,141.83,36.13,141.85,36.6 M140.27,38.22h1.49v5.84h-1.49V38.22z"/>
<rect x="143.35" y="35.55" class="st0" width="1.49" height="8.51"/>
<path class="st0" d="M147.35,38.22l1.06,3.13c0.12,0.36,0.24,0.8,0.32,1.14h0.04c0.09-0.34,0.2-0.77,0.31-1.15l0.91-3.12h1.58
	l-1.46,3.98c-0.8,2.18-1.34,3.16-2.04,3.75c-0.58,0.52-1.18,0.71-1.55,0.76l-0.34-1.25c0.25-0.06,0.56-0.19,0.86-0.41
	c0.28-0.18,0.6-0.53,0.8-0.92c0.06-0.11,0.1-0.19,0.1-0.26c0-0.06-0.01-0.14-0.08-0.29l-2.13-5.36H147.35z"/>
</svg>
